<svg width="20" height="20" viewBox="0 0 20 20" fill="none" xmlns="http://www.w3.org/2000/svg">
<path d="M17.5833 10.4166L18.75 11.5916L13.3083 17.0833L10.4167 14.1666L11.5833 12.9916L13.3083 14.7249L17.5833 10.4166ZM9.16667 3.33325C10.0507 3.33325 10.8986 3.68444 11.5237 4.30956C12.1488 4.93468 12.5 5.78253 12.5 6.66659C12.5 7.55064 12.1488 8.39849 11.5237 9.02361C10.8986 9.64873 10.0507 9.99992 9.16667 9.99992C8.28261 9.99992 7.43477 9.64873 6.80964 9.02361C6.18452 8.39849 5.83333 7.55064 5.83333 6.66659C5.83333 5.78253 6.18452 4.93468 6.80964 4.30956C7.43477 3.68444 8.28261 3.33325 9.16667 3.33325ZM9.16667 4.99992C8.72464 4.99992 8.30072 5.17551 7.98816 5.48807C7.67559 5.80063 7.5 6.22456 7.5 6.66659C7.5 7.10861 7.67559 7.53254 7.98816 7.8451C8.30072 8.15766 8.72464 8.33325 9.16667 8.33325C9.60869 8.33325 10.0326 8.15766 10.3452 7.8451C10.6577 7.53254 10.8333 7.10861 10.8333 6.66659C10.8333 6.22456 10.6577 5.80063 10.3452 5.48807C10.0326 5.17551 9.60869 4.99992 9.16667 4.99992ZM9.16667 10.8333C9.73333 10.8333 10.4167 10.9083 11.175 11.0499L9.78333 12.4416L9.16667 12.4166C6.69167 12.4166 4.08333 13.6333 4.08333 14.1666V15.0833H9.25L10.8333 16.6666H2.5V14.1666C2.5 11.9499 6.94167 10.8333 9.16667 10.8333Z" fill="white"/>
</svg>
