<svg width="18" height="18" viewBox="0 0 18 18" fill="none" xmlns="http://www.w3.org/2000/svg">
<path d="M15.4634 12.7351V10.7386C15.4634 9.9411 15.1466 9.17631 14.5827 8.61242C14.0189 8.04853 13.2541 7.73174 12.4566 7.73174H10.7384C10.3967 7.73174 10.0689 7.59598 9.82722 7.35431C9.58555 7.11265 9.44979 6.78488 9.44979 6.44311V4.44658C9.80823 4.28287 10.1121 4.01968 10.3253 3.68829C10.5385 3.3569 10.6521 2.97125 10.6525 2.5772C10.6525 2.03037 10.4353 1.50594 10.0486 1.11927C9.66196 0.732607 9.13752 0.515381 8.5907 0.515381C8.04387 0.515381 7.51944 0.732607 7.13277 1.11927C6.74611 1.50594 6.52888 2.03037 6.52888 2.5772C6.52888 3.40794 7.02371 4.12013 7.73161 4.44658V6.44311C7.73161 6.78488 7.59584 7.11265 7.35417 7.35431C7.11251 7.59598 6.78474 7.73174 6.44297 7.73174H4.72479C3.92733 7.73174 3.16253 8.04853 2.59865 8.61242C2.03476 9.17631 1.71797 9.9411 1.71797 10.7386V12.7351C1.28994 12.9303 0.941693 13.2662 0.731207 13.6869C0.52072 14.1077 0.460697 14.5878 0.561131 15.0474C0.661566 15.507 0.916398 15.9183 1.2832 16.2128C1.65 16.5074 2.10663 16.6674 2.57706 16.6663C3.04701 16.6665 3.50291 16.506 3.86905 16.2114C4.23519 15.9168 4.48954 15.5058 4.58987 15.0467C4.6902 14.5876 4.63048 14.1079 4.42061 13.6875C4.21074 13.267 3.86336 12.9309 3.43615 12.7351V10.7386C3.43615 10.3968 3.57192 10.069 3.81358 9.82736C4.05525 9.58569 4.38302 9.44993 4.72479 9.44993H6.44297C6.90602 9.44993 7.33986 9.33653 7.73161 9.14924V12.7351C7.30358 12.9303 6.95533 13.2662 6.74484 13.6869C6.53436 14.1077 6.47433 14.5878 6.57477 15.0474C6.6752 15.507 6.93003 15.9183 7.29683 16.2128C7.66363 16.5074 8.12026 16.6674 8.5907 16.6663C9.06065 16.6665 9.51654 16.506 9.88268 16.2114C10.2488 15.9168 10.5032 15.5058 10.6035 15.0467C10.7038 14.5876 10.6441 14.1079 10.4342 13.6875C10.2244 13.267 9.877 12.9309 9.44979 12.7351V9.14924C9.84153 9.33653 10.2754 9.44993 10.7384 9.44993H12.4566C12.7984 9.44993 13.1261 9.58569 13.3678 9.82736C13.6095 10.069 13.7452 10.3968 13.7452 10.7386V12.7351C13.3868 12.8988 13.0829 13.162 12.8697 13.4934C12.6565 13.8248 12.5429 14.2104 12.5425 14.6045C12.5425 15.1513 12.7597 15.6757 13.1464 16.0624C13.5331 16.4491 14.0575 16.6663 14.6043 16.6663C15.1512 16.6663 15.6756 16.4491 16.0623 16.0624C16.4489 15.6757 16.6662 15.1513 16.6662 14.6045C16.6662 13.7737 16.1722 13.0615 15.4634 12.7351ZM8.5907 1.38736C8.90603 1.38736 9.20846 1.51263 9.43143 1.7356C9.65441 1.95858 9.77968 2.261 9.77968 2.57634C9.77968 2.89168 9.65441 3.1941 9.43143 3.41708C9.20846 3.64005 8.90603 3.76532 8.5907 3.76532C8.27536 3.76532 7.97294 3.64005 7.74996 3.41708C7.52698 3.1941 7.40171 2.89168 7.40171 2.57634C7.40171 2.261 7.52698 1.95858 7.74996 1.7356C7.97294 1.51263 8.27536 1.38736 8.5907 1.38736ZM2.57706 15.7943C2.42081 15.7943 2.26609 15.7635 2.12173 15.7037C1.97737 15.6439 1.8462 15.5563 1.73572 15.4458C1.62523 15.3353 1.53759 15.2042 1.47779 15.0598C1.418 14.9154 1.38722 14.7607 1.38722 14.6045C1.38722 14.4482 1.418 14.2935 1.47779 14.1491C1.53759 14.0048 1.62523 13.8736 1.73572 13.7631C1.8462 13.6526 1.97737 13.565 2.12173 13.5052C2.26609 13.4454 2.42081 13.4146 2.57706 13.4146C2.89263 13.4146 3.19527 13.54 3.4184 13.7631C3.64154 13.9863 3.7669 14.2889 3.7669 14.6045C3.7669 14.92 3.64154 15.2227 3.4184 15.4458C3.19527 15.669 2.89263 15.7943 2.57706 15.7943ZM8.5907 15.7943C8.43444 15.7943 8.27972 15.7635 8.13536 15.7037C7.99101 15.6439 7.85984 15.5563 7.74935 15.4458C7.63887 15.3353 7.55122 15.2042 7.49143 15.0598C7.43163 14.9154 7.40086 14.7607 7.40086 14.6045C7.40086 14.4482 7.43163 14.2935 7.49143 14.1491C7.55122 14.0048 7.63887 13.8736 7.74935 13.7631C7.85984 13.6526 7.99101 13.565 8.13536 13.5052C8.27972 13.4454 8.43444 13.4146 8.5907 13.4146C8.90626 13.4146 9.2089 13.54 9.43204 13.7631C9.65518 13.9863 9.78054 14.2889 9.78054 14.6045C9.78054 14.92 9.65518 15.2227 9.43204 15.4458C9.2089 15.669 8.90626 15.7943 8.5907 15.7943ZM14.6043 15.7943C14.4481 15.7943 14.2934 15.7635 14.149 15.7037C14.0046 15.6439 13.8735 15.5563 13.763 15.4458C13.6525 15.3353 13.5649 15.2042 13.5051 15.0598C13.4453 14.9154 13.4145 14.7607 13.4145 14.6045C13.4145 14.4482 13.4453 14.2935 13.5051 14.1491C13.5649 14.0048 13.6525 13.8736 13.763 13.7631C13.8735 13.6526 14.0046 13.565 14.149 13.5052C14.2934 13.4454 14.4481 13.4146 14.6043 13.4146C14.9199 13.4146 15.2225 13.54 15.4457 13.7631C15.6688 13.9863 15.7942 14.2889 15.7942 14.6045C15.7942 14.92 15.6688 15.2227 15.4457 15.4458C15.2225 15.669 14.9199 15.7943 14.6043 15.7943Z" fill="white"/>
</svg>
