<svg width="19" height="19" viewBox="0 0 19 19" fill="none" xmlns="http://www.w3.org/2000/svg">
<path d="M9.92774 16.25C8.04023 16.25 6.44348 15.9595 5.13748 15.3785C3.83148 14.7975 3.17823 14.088 3.17773 13.25V5.75C3.17773 4.925 3.83723 4.21875 5.15623 3.63125C6.47523 3.04375 8.06573 2.75 9.92774 2.75C11.7897 2.75 13.3805 3.04375 14.7 3.63125C16.0195 4.21875 16.6787 4.925 16.6777 5.75V13.25C16.6777 14.0875 16.0245 14.797 14.718 15.3785C13.4115 15.96 11.8147 16.2505 9.92774 16.25ZM9.92774 7.26875C11.0402 7.26875 12.159 7.10925 13.284 6.79025C14.409 6.47125 15.0402 6.13075 15.1777 5.76875C15.0402 5.40625 14.4122 5.0625 13.2937 4.7375C12.1752 4.4125 11.0532 4.25 9.92774 4.25C8.79023 4.25 7.67473 4.4095 6.58123 4.7285C5.48773 5.0475 4.85323 5.39425 4.67773 5.76875C4.85273 6.14375 5.48723 6.4875 6.58123 6.8C7.67523 7.1125 8.79073 7.26875 9.92774 7.26875ZM9.92774 11C10.4527 11 10.959 10.975 11.4465 10.925C11.934 10.875 12.3997 10.803 12.8437 10.709C13.2877 10.615 13.7065 10.4995 14.1 10.3625C14.4935 10.2255 14.8527 10.0692 15.1777 9.89375V7.64375C14.8527 7.81875 14.4935 7.975 14.1 8.1125C13.7065 8.25 13.2877 8.36575 12.8437 8.45975C12.3997 8.55375 11.934 8.6255 11.4465 8.675C10.959 8.7245 10.4527 8.7495 9.92774 8.75C9.40274 8.7505 8.89023 8.7255 8.39023 8.675C7.89023 8.6245 7.41824 8.5525 6.97424 8.459C6.53023 8.3655 6.11473 8.25 5.72773 8.1125C5.34073 7.975 4.99073 7.81875 4.67773 7.64375V9.89375C4.99023 10.0687 5.34023 10.225 5.72773 10.3625C6.11523 10.5 6.53098 10.6157 6.97498 10.7097C7.41898 10.8037 7.89073 10.8755 8.39023 10.925C8.88973 10.9745 9.40224 10.9995 9.92774 11ZM9.92774 14.75C10.5027 14.75 11.0872 14.7062 11.6812 14.6187C12.2752 14.5312 12.822 14.4158 13.3215 14.2723C13.821 14.1288 14.2397 13.9662 14.5777 13.7847C14.9157 13.6032 15.1157 13.4188 15.1777 13.2313V11.3937C14.8527 11.5687 14.4935 11.725 14.1 11.8625C13.7065 12 13.2877 12.1157 12.8437 12.2097C12.3997 12.3037 11.934 12.3755 11.4465 12.425C10.959 12.4745 10.4527 12.4995 9.92774 12.5C9.40274 12.5005 8.89023 12.4755 8.39023 12.425C7.89023 12.3745 7.41824 12.3025 6.97424 12.209C6.53023 12.1155 6.11473 12 5.72773 11.8625C5.34073 11.725 4.99073 11.5687 4.67773 11.3937V13.25C4.74023 13.4375 4.93723 13.6188 5.26873 13.7938C5.60023 13.9688 6.01573 14.1283 6.51523 14.2723C7.01473 14.4163 7.56473 14.5317 8.16523 14.6187C8.76573 14.7057 9.35324 14.7495 9.92774 14.75Z" fill="#0873CD"/>
</svg>
