<svg width="19" height="19" viewBox="0 0 19 19" fill="none" xmlns="http://www.w3.org/2000/svg">
<g clip-path="url(#clip0_6126_9302)">
<path d="M8.46094 1.27683C5.71172 1.50183 3.26485 3.0698 1.90782 5.48152C0.768753 7.50652 0.5543 9.98504 1.32071 12.2034C1.72852 13.3741 2.33672 14.3514 3.21914 15.2585C5.69766 17.8003 9.51914 18.4682 12.7148 16.9178C14.441 16.0776 15.8719 14.6011 16.6348 12.8749C17.8934 10.0307 17.4856 6.81394 15.559 4.36004C15.1055 3.78347 14.2055 2.96785 13.5762 2.56707C12.8766 2.12058 12.0082 1.73738 11.2383 1.53699C10.6547 1.3823 10.2645 1.31902 9.67383 1.27332C9.14649 1.23465 8.97422 1.23465 8.46094 1.27683ZM10.1836 2.83426C10.8938 2.96082 11.4035 3.12605 12.0258 3.42136C14.6273 4.6659 16.1496 7.42215 15.8086 10.2733C15.5309 12.6112 14.1035 14.5975 11.9766 15.603C10.1414 16.4678 8.03907 16.4608 6.19688 15.5784C4.79414 14.9069 3.7043 13.8136 3.03282 12.4143C2.73399 11.7921 2.5793 11.2964 2.44219 10.5546C2.35782 10.087 2.35782 8.91277 2.44219 8.44519C2.5793 7.7034 2.73399 7.20769 3.03282 6.58543C4.03828 4.48308 6.01055 3.08035 8.37305 2.78855C8.74922 2.73933 9.80743 2.76746 10.1836 2.83426Z" fill="#0873CD"/>
<path d="M8.93557 3.51992C8.66135 3.60781 8.47502 3.78008 8.40471 4.00859C8.38361 4.08945 8.37307 4.36016 8.3801 4.70469C8.39065 5.23906 8.39416 5.27773 8.47854 5.39727C8.52776 5.47109 8.62971 5.57305 8.70354 5.62578C8.82658 5.71016 8.8758 5.7207 9.11135 5.7207C9.3469 5.7207 9.39611 5.71016 9.51916 5.62578C9.59299 5.57305 9.69494 5.47109 9.74416 5.39727C9.82854 5.27773 9.83205 5.23906 9.8426 4.70469C9.85666 4.08945 9.83205 3.9418 9.6844 3.76953C9.51565 3.56914 9.15354 3.44961 8.93557 3.51992Z" fill="#0873CD"/>
<path d="M8.83008 7.30624C8.67187 7.37655 8.52422 7.51366 8.43984 7.67889C8.38008 7.79842 8.37305 7.89335 8.37305 8.74413C8.37305 9.5035 8.38359 9.70389 8.42578 9.80584C8.49258 9.96053 10.0113 11.5039 10.2187 11.6269C10.4227 11.7465 10.5844 11.7676 10.8094 11.7008C11.0625 11.6269 11.2629 11.416 11.3227 11.1594C11.4141 10.7797 11.3297 10.639 10.5035 9.81639L9.84961 9.166V8.48749C9.84961 7.88983 9.84258 7.79491 9.78281 7.67889C9.59648 7.3203 9.17812 7.15506 8.83008 7.30624Z" fill="#0873CD"/>
<path d="M3.55648 8.8179C3.06077 9.03587 2.96585 9.72493 3.38069 10.073C3.55296 10.2206 3.70062 10.2452 4.31585 10.2312C4.8678 10.2206 4.88538 10.2171 5.01898 10.1257C5.0928 10.073 5.19476 9.97103 5.24398 9.8972C5.3178 9.78821 5.33187 9.72845 5.33187 9.49993C5.33187 9.27142 5.3178 9.21165 5.24398 9.10267C5.19476 9.02884 5.0928 8.92688 5.01898 8.87415C4.88187 8.77923 4.87132 8.77923 4.28069 8.7722C3.79905 8.76517 3.65491 8.7722 3.55648 8.8179Z" fill="#0873CD"/>
<path d="M13.2563 8.84258C13.1719 8.88828 13.0559 8.99375 12.9961 9.07461C12.9012 9.21172 12.8906 9.25039 12.8906 9.49648C12.8906 9.73555 12.9012 9.78477 12.9855 9.90781C13.0383 9.98164 13.1402 10.0836 13.2141 10.1328C13.3406 10.2172 13.3582 10.2207 13.984 10.2207H14.6238L14.7785 10.1152C15.2637 9.77422 15.1934 9.03945 14.659 8.81445C14.5605 8.77578 14.3953 8.76172 13.9699 8.76172C13.4531 8.76172 13.4004 8.76875 13.2563 8.84258Z" fill="#0873CD"/>
<path d="M8.75959 13.339C8.6717 13.3882 8.55568 13.4937 8.49592 13.5745C8.39045 13.7257 8.39045 13.7257 8.3799 14.2917C8.36584 14.914 8.39045 15.0581 8.53811 15.2304C8.851 15.6031 9.43811 15.5714 9.72639 15.1671L9.83186 15.0124V14.3726V13.7292L9.73693 13.5921C9.58225 13.3742 9.42053 13.2828 9.14982 13.2687C8.95646 13.2581 8.88967 13.2722 8.75959 13.339Z" fill="#0873CD"/>
</g>
<defs>
<clipPath id="clip0_6126_9302">
<rect width="18" height="18" fill="white" transform="translate(0.112305 0.5)"/>
</clipPath>
</defs>
</svg>
