<svg width="18" height="18" viewBox="0 0 18 18" fill="none" xmlns="http://www.w3.org/2000/svg">
<g clip-path="url(#clip0_6126_9296)">
<path d="M4.29688 11.8122C4.29688 11.5274 4.41001 11.2542 4.6114 11.0529C4.81279 10.8515 5.08593 10.7383 5.37074 10.7383C5.65554 10.7383 5.92869 10.8515 6.13007 11.0529C6.33146 11.2542 6.4446 11.5274 6.4446 11.8122V12.8861C6.4446 13.1709 6.33146 13.444 6.13007 13.6454C5.92869 13.8468 5.65554 13.9599 5.37074 13.9599C5.08593 13.9599 4.81279 13.8468 4.6114 13.6454C4.41001 13.444 4.29688 13.1709 4.29688 12.8861V11.8122ZM10.7401 7.51673C10.7401 7.23193 10.8532 6.95879 11.0546 6.7574C11.256 6.55601 11.5291 6.44287 11.8139 6.44287C12.0987 6.44287 12.3719 6.55601 12.5733 6.7574C12.7746 6.95879 12.8878 7.23193 12.8878 7.51673V12.8861C12.8878 13.1709 12.7746 13.444 12.5733 13.6454C12.3719 13.8468 12.0987 13.9599 11.8139 13.9599C11.5291 13.9599 11.256 13.8468 11.0546 13.6454C10.8532 13.444 10.7401 13.1709 10.7401 12.8861V7.51673ZM7.51847 9.66446C7.51847 9.37966 7.6316 9.10651 7.83299 8.90513C8.03438 8.70374 8.30752 8.5906 8.59233 8.5906C8.87714 8.5906 9.15028 8.70374 9.35167 8.90513C9.55305 9.10651 9.66619 9.37966 9.66619 9.66446V12.8861C9.66619 13.1709 9.55305 13.444 9.35167 13.6454C9.15028 13.8468 8.87714 13.9599 8.59233 13.9599C8.30752 13.9599 8.03438 13.8468 7.83299 13.6454C7.6316 13.444 7.51847 13.1709 7.51847 12.8861V9.66446Z" fill="white"/>
<path d="M4.29679 1.6106H3.22292C2.65331 1.6106 2.10703 1.83687 1.70425 2.23965C1.30147 2.64243 1.0752 3.18871 1.0752 3.75832V15.0339C1.0752 15.6035 1.30147 16.1498 1.70425 16.5526C2.10703 16.9553 2.65331 17.1816 3.22292 17.1816H13.9616C14.5312 17.1816 15.0775 16.9553 15.4802 16.5526C15.883 16.1498 16.1093 15.6035 16.1093 15.0339V3.75832C16.1093 3.18871 15.883 2.64243 15.4802 2.23965C15.0775 1.83687 14.5312 1.6106 13.9616 1.6106H12.8877V2.68446H13.9616C14.2464 2.68446 14.5195 2.7976 14.7209 2.99899C14.9223 3.20038 15.0354 3.47352 15.0354 3.75832V15.0339C15.0354 15.3187 14.9223 15.5918 14.7209 15.7932C14.5195 15.9946 14.2464 16.1078 13.9616 16.1078H3.22292C2.93812 16.1078 2.66497 15.9946 2.46359 15.7932C2.2622 15.5918 2.14906 15.3187 2.14906 15.0339V3.75832C2.14906 3.47352 2.2622 3.20038 2.46359 2.99899C2.66497 2.7976 2.93812 2.68446 3.22292 2.68446H4.29679V1.6106Z" fill="white"/>
<path d="M10.203 1.07362C10.3454 1.07362 10.482 1.13019 10.5827 1.23088C10.6834 1.33158 10.7399 1.46815 10.7399 1.61055V2.68441C10.7399 2.82682 10.6834 2.96339 10.5827 3.06408C10.482 3.16478 10.3454 3.22135 10.203 3.22135H6.9814C6.839 3.22135 6.70243 3.16478 6.60173 3.06408C6.50104 2.96339 6.44447 2.82682 6.44447 2.68441V1.61055C6.44447 1.46815 6.50104 1.33158 6.60173 1.23088C6.70243 1.13019 6.839 1.07362 6.9814 1.07362H10.203ZM6.9814 -0.000244141C6.55419 -0.000244141 6.14448 0.169464 5.8424 0.471547C5.54031 0.77363 5.37061 1.18334 5.37061 1.61055V2.68441C5.37061 3.11162 5.54031 3.52134 5.8424 3.82342C6.14448 4.1255 6.55419 4.29521 6.9814 4.29521H10.203C10.6302 4.29521 11.0399 4.1255 11.342 3.82342C11.6441 3.52134 11.8138 3.11162 11.8138 2.68441V1.61055C11.8138 1.18334 11.6441 0.77363 11.342 0.471547C11.0399 0.169464 10.6302 -0.000244141 10.203 -0.000244141L6.9814 -0.000244141Z" fill="white"/>
</g>
<defs>
<clipPath id="clip0_6126_9296">
<rect width="17.1818" height="17.1818" fill="white"/>
</clipPath>
</defs>
</svg>
