<svg width="19" height="19" viewBox="0 0 19 19" fill="none" xmlns="http://www.w3.org/2000/svg">
<path fill-rule="evenodd" clip-rule="evenodd" d="M4.70117 8V5.75C4.70117 3.26472 6.71589 1.25 9.20117 1.25C11.6865 1.25 13.7012 3.26472 13.7012 5.75V8H14.4512C15.6938 8 16.7012 9.00736 16.7012 10.25V15.5C16.7012 16.7426 15.6938 17.75 14.4512 17.75H3.95117C2.70853 17.75 1.70117 16.7426 1.70117 15.5V10.25C1.70117 9.00736 2.70853 8 3.95117 8H4.70117ZM6.20117 5.75C6.20117 4.09315 7.54432 2.75 9.20117 2.75C10.858 2.75 12.2012 4.09315 12.2012 5.75V8H6.20117V5.75ZM3.95117 9.5C3.53696 9.5 3.20117 9.83579 3.20117 10.25V15.5C3.20117 15.9142 3.53696 16.25 3.95117 16.25H14.4512C14.8654 16.25 15.2012 15.9142 15.2012 15.5V10.25C15.2012 9.83579 14.8654 9.5 14.4512 9.5H3.95117Z" fill="#0873CD"/>
</svg>
