<svg width="24" height="16" viewBox="0 0 24 16" fill="none" xmlns="http://www.w3.org/2000/svg">
<path d="M20.0616 9.10941C20.7567 9.10941 21.4124 9.25865 22.0288 9.55713C22.6451 9.85562 23.1599 10.2867 23.573 10.8503C23.6189 10.9094 23.6337 10.9618 23.6174 11.0077C23.6012 11.0536 23.5732 11.093 23.5336 11.1257C23.494 11.1585 23.4481 11.1733 23.3959 11.1702C23.3437 11.167 23.2978 11.1391 23.2582 11.0864C22.8976 10.5749 22.4337 10.1832 21.8667 9.91122C21.2996 9.63923 20.6979 9.5031 20.0616 9.50284C19.4253 9.50258 18.8286 9.63871 18.2715 9.91122C17.7144 10.1837 17.2521 10.5755 16.8847 11.0864C16.8453 11.1454 16.7994 11.1782 16.747 11.1848C16.6945 11.1913 16.6486 11.1782 16.6093 11.1454C16.5634 11.1126 16.5354 11.0717 16.5255 11.0227C16.5155 10.9736 16.5303 10.9227 16.5699 10.87C16.9765 10.3127 17.4864 9.87988 18.0996 9.57169C18.7128 9.2635 19.3668 9.10941 20.0616 9.10941ZM20.0616 10.034C20.9468 10.034 21.7075 10.329 22.3435 10.9192C22.9796 11.5093 23.2976 12.2405 23.2976 13.1126C23.2976 13.4404 23.1813 13.7142 22.9486 13.934C22.716 14.1538 22.4323 14.2636 22.0976 14.2633C21.7629 14.2631 21.4761 14.1533 21.2372 13.934C20.9982 13.7148 20.8785 13.4409 20.878 13.1126C20.878 12.8962 20.7977 12.7141 20.6372 12.5665C20.4767 12.4188 20.2848 12.3451 20.0616 12.3454C19.8384 12.3456 19.6465 12.4195 19.486 12.5669C19.3255 12.7143 19.2452 12.8962 19.2452 13.1126C19.2452 13.7486 19.4338 14.2797 19.811 14.706C20.1882 15.1322 20.675 15.4305 21.2714 15.601C21.3304 15.6207 21.3698 15.6535 21.3894 15.6994C21.4091 15.7453 21.4124 15.7944 21.3993 15.8469C21.3862 15.8928 21.3599 15.9321 21.3206 15.9649C21.2812 15.9977 21.2321 16.0075 21.1731 15.9944C20.4911 15.8239 19.9337 15.4845 19.501 14.9762C19.0682 14.4679 18.8518 13.8467 18.8518 13.1126C18.8518 12.7847 18.9698 12.5093 19.2059 12.2864C19.442 12.0634 19.7272 11.9519 20.0616 11.9519C20.396 11.9519 20.6813 12.0634 20.9173 12.2864C21.1534 12.5093 21.2714 12.7847 21.2714 13.1126C21.2714 13.3289 21.3534 13.511 21.5173 13.6586C21.6812 13.8063 21.8747 13.88 22.0976 13.8797C22.3206 13.8795 22.5107 13.8058 22.6681 13.6586C22.8255 13.5115 22.9041 13.3295 22.9041 13.1126C22.9041 12.3519 22.6255 11.7126 22.0681 11.1946C21.5107 10.6766 20.8452 10.4176 20.0714 10.4176C19.2977 10.4176 18.6322 10.6766 18.0748 11.1946C17.5174 11.7126 17.2388 12.3487 17.2388 13.1027C17.2388 13.2601 17.2536 13.4568 17.2832 13.6929C17.3129 13.9289 17.3833 14.2043 17.4945 14.5191C17.5142 14.5781 17.5126 14.6305 17.4898 14.6764C17.4669 14.7223 17.4292 14.7551 17.3765 14.7748C17.3237 14.7945 17.273 14.7929 17.2242 14.7701C17.1754 14.7473 17.1409 14.7095 17.1207 14.6568C17.0224 14.401 16.9519 14.147 16.9095 13.8947C16.867 13.6424 16.8456 13.3817 16.8453 13.1126C16.8453 12.2405 17.1618 11.5093 17.7947 10.9192C18.4276 10.329 19.1832 10.034 20.0616 10.034ZM20.0616 8.14551C20.4813 8.14551 20.8911 8.19626 21.2911 8.29777C21.6911 8.39927 22.0779 8.54523 22.4517 8.73565C22.5107 8.76844 22.5452 8.80778 22.5552 8.85368C22.5651 8.89958 22.5602 8.94548 22.5402 8.99138C22.5203 9.03728 22.4875 9.07335 22.4419 9.09958C22.3962 9.1258 22.3405 9.12253 22.2747 9.08974C21.9271 8.9127 21.5681 8.7767 21.1974 8.68175C20.8268 8.5868 20.4482 8.5392 20.0616 8.53894C19.6813 8.53894 19.3075 8.58326 18.9403 8.67192C18.5731 8.76057 18.2223 8.89984 17.8879 9.08974C17.8355 9.12253 17.783 9.13079 17.7305 9.11453C17.6781 9.09826 17.6387 9.06377 17.6125 9.01105C17.5863 8.95833 17.5797 8.91086 17.5928 8.86863C17.606 8.8264 17.6387 8.78863 17.6912 8.75532C18.0584 8.55861 18.442 8.40779 18.842 8.30288C19.242 8.19797 19.6485 8.14551 20.0616 8.14551ZM20.0616 10.988C20.6714 10.988 21.196 11.193 21.6353 11.603C22.0747 12.0129 22.2943 12.5161 22.2943 13.1126C22.2943 13.1716 22.2764 13.2192 22.2404 13.2554C22.2045 13.2916 22.1569 13.3095 22.0976 13.3093C22.0452 13.3093 21.9993 13.2913 21.9599 13.2554C21.9206 13.2194 21.9009 13.1718 21.9009 13.1126C21.9009 12.6208 21.7189 12.2094 21.3548 11.8784C20.9908 11.5474 20.5597 11.3817 20.0616 11.3815C19.5635 11.3812 19.1357 11.5468 18.7782 11.8784C18.4207 12.2099 18.242 12.6213 18.242 13.1126C18.242 13.6437 18.3338 14.0946 18.5174 14.4652C18.701 14.8358 18.9698 15.2078 19.3239 15.5813C19.3633 15.6207 19.3829 15.6666 19.3829 15.719C19.3829 15.7715 19.3633 15.8174 19.3239 15.8567C19.2846 15.8961 19.2387 15.9157 19.1862 15.9157C19.1338 15.9157 19.0879 15.8961 19.0485 15.8567C18.6617 15.4502 18.365 15.0355 18.1586 14.6127C17.9522 14.1899 17.8488 13.6899 17.8486 13.1126C17.8486 12.5159 18.065 12.0125 18.4977 11.6026C18.9305 11.1926 19.4518 10.9878 20.0616 10.988ZM20.0518 12.9158C20.1108 12.9158 20.1584 12.9355 20.1946 12.9749C20.2308 13.0142 20.2488 13.0601 20.2485 13.1126C20.2485 13.6043 20.4255 14.0076 20.7796 14.3224C21.1337 14.6371 21.5468 14.7945 22.0189 14.7945C22.0583 14.7945 22.114 14.7912 22.1861 14.7846C22.2583 14.7781 22.3337 14.7682 22.4124 14.7551C22.4714 14.742 22.5223 14.7503 22.565 14.7799C22.6078 14.8096 22.6356 14.8537 22.6484 14.9125C22.6615 14.965 22.6517 15.0109 22.6189 15.0502C22.5861 15.0895 22.5435 15.1158 22.491 15.1289C22.373 15.1617 22.2698 15.1798 22.1814 15.1832C22.093 15.1866 22.0389 15.1882 22.0189 15.1879C21.4353 15.1879 20.9287 14.9912 20.4991 14.5978C20.0695 14.2043 19.8548 13.7093 19.8551 13.1126C19.8551 13.0601 19.8732 13.0142 19.9094 12.9749C19.9456 12.9355 19.993 12.9158 20.0518 12.9158Z" fill="white"/>
<path fill-rule="evenodd" clip-rule="evenodd" d="M10.2943 3.47107C10.2943 1.55702 8.73728 0 6.82323 0C4.90918 0 3.35216 1.55702 3.35216 3.47107C3.35216 5.38512 4.90918 6.94215 6.82323 6.94215C8.73728 6.94215 10.2943 5.38512 10.2943 3.47107ZM0.376953 11.405V13.8843H10.2943V11.9008H2.36042V11.405C2.36042 10.5818 4.3439 9.91735 6.82323 9.91735C8.22158 9.91735 9.48108 10.1355 10.2943 10.4727V8.56859C9.22323 8.1719 7.99348 7.93388 6.82323 7.93388C3.80836 7.93388 0.376953 9.49091 0.376953 11.405ZM22.1951 7.25877V3.96694L18.2282 0H13.2695C12.7241 0 12.2778 0.446281 12.2778 0.991735V12.8926C12.2778 13.438 12.7241 13.8843 13.2695 13.8843H15.6589C15.4646 13.341 15.3588 12.7556 15.3588 12.1455C15.3588 12.0635 15.3607 11.9819 15.3645 11.9008H14.2613V1.98347H17.2365V4.95868H20.2117V6.99101C20.3145 6.98491 20.4181 6.98182 20.5224 6.98182C21.1078 6.98182 21.6705 7.07925 22.1951 7.25877ZM5.33563 3.47107C5.33563 2.64793 6.00009 1.98347 6.82323 1.98347C7.64637 1.98347 8.31084 2.64793 8.31084 3.47107C8.31084 4.29421 7.64637 4.95868 6.82323 4.95868C6.00009 4.95868 5.33563 4.29421 5.33563 3.47107Z" fill="white"/>
</svg>
