<svg width="25" height="16" viewBox="0 0 25 16" fill="none" xmlns="http://www.w3.org/2000/svg">
<path d="M14.5988 6.98169C15.8238 6.98169 16.8203 7.97819 16.8203 9.20318C16.8203 10.4282 15.8238 11.4247 14.5988 11.4247C13.3738 11.4247 12.3773 10.4282 12.3773 9.20318C12.3773 7.97819 13.3738 6.98169 14.5988 6.98169ZM10.4731 15.8676V14.2809C10.4731 13.0559 12.6692 12.0594 14.5988 12.0594C15.3477 12.0594 16.1348 12.2117 16.8203 12.4656V13.6842C16.2998 13.4684 15.4937 13.3288 14.5988 13.3288C13.012 13.3288 11.7426 13.7541 11.7426 14.2809V14.5982H16.8203V15.8676H10.4731ZM23.8021 15.8676H18.7244C18.3753 15.8676 18.0897 15.582 18.0897 15.2329V7.6164C18.0897 7.26731 18.3753 6.98169 18.7244 6.98169H21.8979L24.4368 9.52053V15.2329C24.4368 15.582 24.1512 15.8676 23.8021 15.8676ZM19.3591 8.25111V14.5982H23.1674V10.1552H21.2632V8.25111H19.3591ZM14.5988 8.25111C14.072 8.25111 13.6467 8.67637 13.6467 9.20318C13.6467 9.72999 14.072 10.1552 14.5988 10.1552C15.1256 10.1552 15.5508 9.72999 15.5508 9.20318C15.5508 8.67637 15.1256 8.25111 14.5988 8.25111Z" fill="white"/>
<path fill-rule="evenodd" clip-rule="evenodd" d="M9.06175 10.5451C8.96036 10.5397 8.86241 10.506 8.779 10.4477C8.69175 10.3868 8.62422 10.3017 8.58473 10.2029L6.16145 4.14473L4.78691 7.30909C4.74443 7.40643 4.67445 7.48926 4.58556 7.54739C4.49668 7.60553 4.39275 7.63645 4.28655 7.63636H0.545455C0.400791 7.63636 0.262052 7.5789 0.15976 7.4766C0.0574673 7.37431 0 7.23557 0 7.09091C0 6.94625 0.0574673 6.80751 0.15976 6.70521C0.262052 6.60292 0.400791 6.54545 0.545455 6.54545H3.92873L5.68146 2.51055C5.72436 2.41186 5.79549 2.32806 5.8859 2.26971C5.97632 2.21135 6.08197 2.18104 6.18957 2.1826C6.29717 2.18415 6.40191 2.2175 6.4906 2.27844C6.57929 2.33939 6.64797 2.4252 6.688 2.52509L9.12873 8.62764L11.1418 4.31491C11.1852 4.22208 11.2539 4.14336 11.34 4.08777C11.4261 4.03218 11.5261 4.00197 11.6286 4.0006C11.7311 3.99924 11.8319 4.02677 11.9194 4.08004C12.007 4.13332 12.0778 4.21018 12.1236 4.30182L13.0806 6.21394C12.7413 6.35197 12.4153 6.51591 12.1051 6.70331L11.6531 5.79927L10.719 7.80148C9.97083 8.56621 9.39699 9.50219 9.06175 10.5451ZM16.3629 5.73205V1.63636C16.3629 1.4917 16.3054 1.35296 16.2031 1.25067C16.1009 1.14838 15.9621 1.09091 15.8175 1.09091H1.63636C1.4917 1.09091 1.35296 1.14838 1.25067 1.25067C1.14838 1.35296 1.09091 1.4917 1.09091 1.63636V5.81818H0V1.63636C0 1.20237 0.172402 0.786157 0.47928 0.47928C0.786157 0.172402 1.20237 0 1.63636 0H15.8175C16.2514 0 16.6677 0.172402 16.9745 0.47928C17.2814 0.786157 17.4538 1.20237 17.4538 1.63636V5.81818H16.9856C16.781 5.78041 16.5733 5.75156 16.3629 5.73205ZM9.56446 16H4.54545C4.40726 16 4.27422 15.9475 4.17324 15.8531C4.07226 15.7588 4.01086 15.6296 4.00144 15.4917C3.99202 15.3538 4.03528 15.2175 4.1225 15.1103C4.20971 15.0031 4.33436 14.933 4.47127 14.9142L4.54545 14.9091H5.81818V13.0924H1.63636C1.20237 13.0924 0.786157 12.92 0.47928 12.6131C0.172402 12.3062 0 11.89 0 11.456V8.36436H1.09091V11.456C1.09091 11.7578 1.33527 12.0015 1.63636 12.0015L8.76114 12.0004C8.7393 12.2252 8.72812 12.4532 8.72812 12.6837C8.72812 12.8209 8.73208 12.9572 8.73988 13.0924H6.90909V14.9091H9.09027C9.21771 15.2883 9.37682 15.653 9.56446 16Z" fill="white"/>
</svg>
