<svg width="18" height="19" viewBox="0 0 18 19" fill="none" xmlns="http://www.w3.org/2000/svg">
<path fill-rule="evenodd" clip-rule="evenodd" d="M2.64217 4.46987C2.35674 4.50827 2.23451 4.57463 2.15371 4.65542C2.07292 4.73622 2.00656 4.85844 1.96816 5.14388C1.92796 5.44275 1.92697 5.84347 1.92697 6.44028C1.92697 7.0371 1.92796 7.43781 1.96816 7.73669C2.00656 8.02212 2.07292 8.14435 2.15371 8.22515C2.23451 8.30594 2.35674 8.3723 2.64217 8.4107C2.94105 8.4509 3.34176 8.45189 3.93858 8.45189H11.366C11.9629 8.45189 12.3636 8.4509 12.6624 8.4107C12.9479 8.3723 13.0701 8.30594 13.1509 8.22515C13.2317 8.14435 13.2981 8.02212 13.3365 7.73669C13.3767 7.43781 13.3776 7.0371 13.3776 6.44028C13.3776 5.84347 13.3767 5.44275 13.3365 5.14388C13.2981 4.85844 13.2317 4.73622 13.1509 4.65542C13.0701 4.57463 12.9479 4.50827 12.6624 4.46987C12.3636 4.42967 11.9629 4.42868 11.366 4.42868H3.93858C3.34176 4.42868 2.94105 4.42967 2.64217 4.46987ZM3.90636 3.50024H3.93858H11.366H11.3983H11.3983C11.9545 3.50023 12.4182 3.50021 12.7862 3.54973C13.1748 3.60201 13.5255 3.71701 13.8074 3.99892C14.0893 4.28083 14.2043 4.63149 14.2566 5.02009C14.3061 5.38818 14.3061 5.85186 14.3061 6.40807V6.44028V6.4725C14.3061 7.02871 14.3061 7.49239 14.2566 7.86047C14.2043 8.24908 14.0893 8.59973 13.8074 8.88165C13.5255 9.16356 13.1748 9.27856 12.7862 9.33084C12.4181 9.38036 11.9545 9.38034 11.3983 9.38032L11.366 9.38032H3.93858L3.90636 9.38032H3.90636H3.90635C3.35015 9.38034 2.88647 9.38036 2.51839 9.33084C2.12978 9.27856 1.77912 9.16356 1.49721 8.88165C1.2153 8.59973 1.1003 8.24908 1.04802 7.86047C0.998504 7.4924 0.998518 7.02872 0.998536 6.47252V6.4725V6.44028V6.40807V6.40805C0.998518 5.85185 0.998504 5.38817 1.04802 5.02009C1.1003 4.63149 1.2153 4.28083 1.49721 3.99892C1.77912 3.71701 2.12978 3.60201 2.51839 3.54973C2.88646 3.50021 3.35014 3.50023 3.90634 3.50024H3.90636ZM2.64217 11.2784C2.35674 11.3168 2.23451 11.3831 2.15371 11.4639C2.07292 11.5447 2.00656 11.667 1.96816 11.9524C1.92796 12.2513 1.92697 12.652 1.92697 13.2488C1.92697 13.8456 1.92796 14.2463 1.96816 14.5452C2.00656 14.8306 2.07292 14.9529 2.15371 15.0337C2.23451 15.1145 2.35674 15.1808 2.64217 15.2192C2.94105 15.2594 3.34176 15.2604 3.93858 15.2604H7.65294V16.1888H3.93858H3.90636C3.35015 16.1889 2.88647 16.1889 2.51839 16.1393C2.12978 16.0871 1.77912 15.9721 1.49721 15.6902C1.2153 15.4082 1.1003 15.0576 1.04802 14.669C0.998504 14.3009 0.998518 13.8372 0.998536 13.281V13.281V13.2488V13.2166V13.2166C0.998518 12.6604 0.998504 12.1967 1.04802 11.8286C1.1003 11.44 1.2153 11.0893 1.49721 10.8074C1.77912 10.5255 2.12978 10.4105 2.51839 10.3582C2.88647 10.3087 3.35015 10.3087 3.90635 10.3088H3.90636H3.90636L3.93858 10.3088H7.65294V11.2372H3.93858C3.34176 11.2372 2.94105 11.2382 2.64217 11.2784Z" fill="#0873CD"/>
<rect x="3.25928" y="6.0686" width="1.73308" height="0.680851" rx="0.340425" fill="#0873CD"/>
<rect x="3.25928" y="12.8152" width="1.73308" height="0.680851" rx="0.340425" fill="#0873CD"/>
<rect x="6.04443" y="6.0686" width="6.37524" height="0.680851" rx="0.340425" fill="#0873CD"/>
<path d="M9.6087 13.8333C9.36957 13.8333 9.16493 13.7518 8.99478 13.5887C8.82464 13.4257 8.73942 13.2294 8.73913 13C8.73884 12.7706 8.82406 12.5744 8.99478 12.4117C9.16551 12.2489 9.37014 12.1672 9.6087 12.1667C9.84725 12.1661 10.052 12.2478 10.223 12.4117C10.3941 12.5756 10.4791 12.7717 10.4783 13C10.4774 13.2283 10.3923 13.4246 10.223 13.5887C10.0538 13.7529 9.84899 13.8344 9.6087 13.8333ZM9.6087 15.5C8.88406 15.5 8.26812 15.2569 7.76087 14.7708C7.25362 14.2847 7 13.6944 7 13C7 12.3056 7.25362 11.7153 7.76087 11.2292C8.26812 10.7431 8.88406 10.5 9.6087 10.5C10.0942 10.5 10.5345 10.6146 10.9296 10.8437C11.3246 11.0729 11.638 11.375 11.8696 11.75H15.6957L17 13L15.0435 14.875L14.1739 14.25L13.3043 14.875L12.3804 14.25H11.8696C11.6377 14.625 11.3243 14.9271 10.9296 15.1562C10.5348 15.3854 10.0945 15.5 9.6087 15.5ZM9.6087 14.6667C10.0145 14.6667 10.3714 14.5486 10.6796 14.3125C10.9877 14.0764 11.1923 13.7778 11.2935 13.4167H12.6522L13.2826 13.8437L14.1739 13.2083L14.9457 13.7812L15.7609 13L15.3261 12.5833H11.2935C11.192 12.2222 10.9874 11.9236 10.6796 11.6875C10.3717 11.4514 10.0148 11.3333 9.6087 11.3333C9.13043 11.3333 8.72101 11.4965 8.38043 11.8229C8.03986 12.1493 7.86957 12.5417 7.86957 13C7.86957 13.4583 8.03986 13.8507 8.38043 14.1771C8.72101 14.5035 9.13043 14.6667 9.6087 14.6667Z" fill="#0873CD"/>
</svg>
