<svg width="18" height="19" viewBox="0 0 18 19" fill="none" xmlns="http://www.w3.org/2000/svg">
<path d="M13.0356 8.22217C12.2516 8.22217 11.4851 8.45467 10.8332 8.89028C10.1812 9.32589 9.67311 9.94503 9.37306 10.6694C9.07301 11.3938 8.9945 12.1909 9.14746 12.9599C9.30043 13.7289 9.678 14.4353 10.2324 14.9897C10.7868 15.5441 11.4932 15.9217 12.2622 16.0747C13.0312 16.2276 13.8283 16.1491 14.5527 15.8491C15.2771 15.549 15.8963 15.0409 16.3319 14.389C16.7675 13.737 17 12.9706 17 12.1865C16.9988 11.1355 16.5808 10.1278 15.8376 9.38458C15.0944 8.64138 14.0867 8.22333 13.0356 8.22217ZM13.0356 15.0864C12.7111 14.7065 12.4575 14.2713 12.2872 13.8016H13.7856C13.6886 14.0672 13.5656 14.3226 13.4185 14.564C13.3052 14.7482 13.1772 14.9229 13.0356 15.0864ZM12.0633 12.9206C11.9906 12.4339 11.9906 11.9391 12.0633 11.4524H14.0087C14.0814 11.9391 14.0814 12.4339 14.0087 12.9206H12.0633ZM9.95226 12.1865C9.95225 11.9391 9.9822 11.6926 10.0415 11.4524H11.1728C11.1116 11.9399 11.1116 12.4331 11.1728 12.9206H10.0415C9.9822 12.6804 9.95225 12.4339 9.95226 12.1865ZM13.0356 9.28667C13.3602 9.66652 13.6137 10.1017 13.7841 10.5714H12.2864C12.3834 10.3058 12.5064 10.0504 12.6535 9.80901C12.7665 9.62482 12.8943 9.45014 13.0356 9.28667ZM14.8978 11.4524H16.0291C16.148 11.9346 16.148 12.4385 16.0291 12.9206H14.8985C14.9597 12.4331 14.9597 11.9399 14.8985 11.4524H14.8978ZM15.6602 10.5714H14.7135C14.5812 10.1274 14.3899 9.70317 14.1445 9.31016C14.7738 9.55439 15.3061 9.9972 15.6609 10.5714H15.6602ZM11.9267 9.31016C11.6814 9.70317 11.49 10.1274 11.3578 10.5714H10.4104C10.7651 9.9972 11.2975 9.55439 11.9267 9.31016ZM10.4104 13.8016H11.3578C11.49 14.2456 11.6814 14.6698 11.9267 15.0629C11.2975 14.8186 10.7651 14.3758 10.4104 13.8016ZM14.1445 15.0629C14.3899 14.6698 14.5812 14.2456 14.7135 13.8016H15.6609C15.3061 14.3758 14.7738 14.8186 14.1445 15.0629Z" fill="#0873CD"/>
<path fill-rule="evenodd" clip-rule="evenodd" d="M2.4868 3.37624C2.22885 3.41094 2.1184 3.47091 2.04538 3.54392C1.97237 3.61693 1.91241 3.72739 1.87771 3.98533C1.84137 4.25542 1.84048 4.61755 1.84048 5.15688C1.84048 5.69621 1.84137 6.05833 1.87771 6.32843C1.91241 6.58637 1.97237 6.69683 2.04538 6.76984C2.1184 6.84285 2.22885 6.90282 2.4868 6.93752C2.75689 6.97385 3.11901 6.97474 3.65834 6.97474H10.3705C10.9098 6.97474 11.2719 6.97385 11.542 6.93752C11.7999 6.90282 11.9104 6.84285 11.9834 6.76984C12.0564 6.69683 12.1164 6.58637 12.1511 6.32843C12.1874 6.05833 12.1883 5.69621 12.1883 5.15688C12.1883 4.61755 12.1874 4.25542 12.1511 3.98533C12.1164 3.72739 12.0564 3.61693 11.9834 3.54392C11.9104 3.47091 11.7999 3.41094 11.542 3.37624C11.2719 3.33991 10.9098 3.33902 10.3705 3.33902H3.65834C3.11901 3.33902 2.75689 3.33991 2.4868 3.37624ZM3.62923 2.5H3.65834H10.3705H10.3996H10.3996C10.9022 2.49998 11.3212 2.49997 11.6539 2.54472C12.005 2.59196 12.3219 2.69589 12.5767 2.95065C12.8315 3.20541 12.9354 3.52229 12.9826 3.87347C13.0274 4.2061 13.0274 4.62512 13.0273 5.12775V5.15688V5.18601C13.0274 5.68864 13.0274 6.10766 12.9826 6.44029C12.9354 6.79147 12.8315 7.10835 12.5767 7.36311C12.3219 7.61787 12.005 7.7218 11.6539 7.76904C11.3212 7.81379 10.9022 7.81377 10.3996 7.81376H10.3996L10.3705 7.81376H3.65834L3.62923 7.81376H3.62922C3.12659 7.81377 2.70756 7.81379 2.37494 7.76904C2.02376 7.7218 1.70687 7.61787 1.45211 7.36311C1.19735 7.10835 1.09343 6.79147 1.04618 6.44029C1.00144 6.10766 1.00145 5.68864 1.00147 5.18601V5.18599V5.15688V5.12776V5.12775C1.00145 4.62512 1.00144 4.2061 1.04618 3.87347C1.09343 3.52229 1.19735 3.20541 1.45211 2.95065C1.70687 2.69589 2.02376 2.59196 2.37494 2.54472C2.70756 2.49997 3.12658 2.49998 3.62921 2.5H3.62923ZM2.4868 9.52901C2.22885 9.56371 2.1184 9.62368 2.04538 9.69669C1.97237 9.7697 1.91241 9.88016 1.87771 10.1381C1.84137 10.4082 1.84048 10.7703 1.84048 11.3096C1.84048 11.849 1.84137 12.2111 1.87771 12.4812C1.91241 12.7391 1.97237 12.8496 2.04538 12.9226C2.1184 12.9956 2.22885 13.0556 2.4868 13.0903C2.75689 13.1266 3.11901 13.1275 3.65834 13.1275H8.61459C8.67328 13.4196 8.76307 13.7005 8.88034 13.9665H3.65834H3.62924C3.1266 13.9665 2.70757 13.9666 2.37494 13.9218C2.02376 13.8746 1.70687 13.7706 1.45211 13.5159C1.19735 13.2611 1.09343 12.9442 1.04618 12.5931C1.00144 12.2604 1.00145 11.8414 1.00147 11.3388V11.3388V11.3096V11.2805V11.2805C1.00145 10.7779 1.00144 10.3589 1.04618 10.0262C1.09343 9.67506 1.19735 9.35818 1.45211 9.10342C1.70687 8.84865 2.02376 8.74473 2.37494 8.69749C2.70756 8.65274 3.12659 8.65275 3.62922 8.65277H3.62923L3.65834 8.65277H10.3705L10.3996 8.65277H10.3996C10.5384 8.65277 10.6709 8.65276 10.797 8.6537C10.3721 8.8666 9.98934 9.15126 9.66472 9.49178H3.65834C3.11901 9.49178 2.75689 9.49268 2.4868 9.52901Z" fill="#0873CD"/>
<rect x="2.76172" y="4.86597" width="1.94651" height="0.872575" rx="0.436287" fill="#0873CD"/>
<rect x="2.76172" y="10.907" width="1.94651" height="0.872575" rx="0.436287" fill="#0873CD"/>
<rect x="5.58105" y="4.86597" width="5.7053" height="0.872575" rx="0.436287" fill="#0873CD"/>
</svg>
