<svg width="18" height="19" viewBox="0 0 18 19" fill="none" xmlns="http://www.w3.org/2000/svg">
<path d="M1.5 13.25C1.5 11.8355 1.5 11.129 1.9395 10.6895C2.379 10.25 3.0855 10.25 4.5 10.25H13.5C14.9145 10.25 15.621 10.25 16.0605 10.6895C16.5 11.129 16.5 11.8355 16.5 13.25C16.5 14.6645 16.5 15.371 16.0605 15.8105C15.621 16.25 14.9145 16.25 13.5 16.25H4.5C3.0855 16.25 2.379 16.25 1.9395 15.8105C1.5 15.371 1.5 14.6645 1.5 13.25ZM1.5 5C1.5 3.5855 1.5 2.879 1.9395 2.4395C2.379 2 3.0855 2 4.5 2H13.5C14.9145 2 15.621 2 16.0605 2.4395C16.5 2.879 16.5 3.5855 16.5 5C16.5 6.4145 16.5 7.121 16.0605 7.5605C15.621 8 14.9145 8 13.5 8H4.5C3.0855 8 2.379 8 1.9395 7.5605C1.5 7.121 1.5 6.4145 1.5 5Z" stroke="#0873CD" stroke-width="1.125"/>
<path d="M8.25 5H13.5M4.5 5H6M8.25 13.25H13.5M4.5 13.25H6" stroke="#0873CD" stroke-width="1.125" stroke-linecap="round"/>
</svg>
