<svg width="613" height="480" viewBox="0 0 613 480" fill="none" xmlns="http://www.w3.org/2000/svg">
<path d="M612.808 401.267H0V401.573H612.808V401.267Z" fill="#EBEBEB"/>
<path d="M212.302 409.086H183.892V409.392H212.302V409.086Z" fill="#EBEBEB"/>
<path d="M562.275 415.655H492.82V415.961H562.275V415.655Z" fill="#EBEBEB"/>
<path d="M121.815 415.655H52.3594V415.961H121.815V415.655Z" fill="#EBEBEB"/>
<path d="M290.472 346.604H53.8176C51.9636 346.601 50.1867 345.862 48.877 344.55C47.5672 343.238 46.8315 341.46 46.8315 339.606V6.93698C46.8477 5.09369 47.5904 3.3312 48.8985 2.03234C50.2065 0.73348 51.9742 0.00315766 53.8176 0H290.472C292.328 0 294.108 0.737315 295.42 2.04974C296.733 3.36217 297.47 5.14221 297.47 6.99826V339.606C297.47 341.462 296.733 343.242 295.42 344.554C294.108 345.867 292.328 346.604 290.472 346.604ZM53.8176 0.245124C52.0449 0.248371 50.3459 0.954834 49.0936 2.20945C47.8413 3.46407 47.1379 5.16431 47.1379 6.93698V339.606C47.1379 341.378 47.8413 343.079 49.0936 344.333C50.3459 345.588 52.0449 346.294 53.8176 346.298H290.472C292.244 346.291 293.943 345.584 295.196 344.33C296.45 343.077 297.157 341.379 297.163 339.606V6.93698C297.157 5.16418 296.45 3.46583 295.196 2.21226C293.943 0.95869 292.244 0.251582 290.472 0.245124H53.8176Z" fill="#EBEBEB"/>
<path d="M555.584 346.604H318.918C317.064 346.598 315.288 345.858 313.977 344.547C312.666 343.236 311.926 341.46 311.92 339.606V6.93698C311.939 5.09257 312.685 3.33009 313.995 2.03157C315.305 0.733051 317.074 0.00312322 318.918 0H555.584C557.426 0.00637871 559.19 0.738126 560.496 2.03664C561.801 3.33515 562.542 5.0958 562.558 6.93698V339.606C562.56 340.523 562.381 341.432 562.031 342.28C561.682 343.128 561.168 343.899 560.521 344.549C559.873 345.199 559.104 345.715 558.257 346.068C557.41 346.42 556.502 346.602 555.584 346.604ZM318.918 0.245124C317.145 0.251582 315.447 0.95869 314.193 2.21226C312.94 3.46583 312.233 5.16418 312.226 6.93698V339.606C312.233 341.379 312.94 343.077 314.193 344.33C315.447 345.584 317.145 346.291 318.918 346.298H555.584C557.357 346.291 559.056 345.584 560.309 344.33C561.563 343.077 562.27 341.379 562.276 339.606V6.93698C562.27 5.16418 561.563 3.46583 560.309 2.21226C559.056 0.95869 557.357 0.251582 555.584 0.245124H318.918Z" fill="#EBEBEB"/>
<path d="M552.312 439.151H525.839V439.457H552.312V439.151Z" fill="#EBEBEB"/>
<path d="M573.759 292.052C571.197 284.698 550.987 294.699 542.836 306.87C537.382 314.971 534.049 323.636 532.505 335.255C532.688 321.969 532.897 307.74 533.105 294.295C534.76 290.949 538.535 283.203 541.268 277.136C550.337 256.693 571.908 249.094 579.36 236.176C589.165 219.263 589.067 193.905 580.757 184.762C573.587 176.758 549.602 230.538 546.905 236.544C539.567 252.627 534.941 269.813 533.215 287.407C533.399 274.771 533.595 263.176 533.755 254.18C534.257 224.999 534.894 215.61 535.176 212.73C536.181 211.308 537.358 209.666 538.032 208.784C543.817 201.332 556.661 192.458 563.084 181.624C572.46 165.801 570.94 146.866 564.371 139.867C557.495 132.514 545.337 149.917 538.89 167.174C532.443 184.431 535.213 200.964 533.387 215.304C533.007 218.16 532.615 228.786 532.247 243.616C530.286 227.683 526.389 216.995 519.17 207.043C510.272 194.787 502.599 179.896 495.283 181.82C487.966 183.744 491.9 203.477 497.734 217.363C502.894 229.693 528.374 241.986 532.051 251.901C531.622 271.976 531.218 297.457 530.936 321.111C528.938 308.855 530.311 307.826 522.087 289.123C517.184 277.982 497.158 264.243 494.78 271.903C492.402 279.563 496.006 293.964 503.58 304.173C509.708 312.348 523.19 312.336 526.364 317.41C527.087 318.636 529.502 323.097 530.887 325.732C530.556 354.644 530.409 380.174 530.58 388.888L531.892 388.974C531.83 386.731 531.99 372.011 532.247 352.536C535.532 342.192 557.679 336.137 564.518 325.364C571.687 314.027 576.823 300.876 573.759 292.052Z" fill="#E6E6E6"/>
<path d="M552.936 401.928H510.456C509.338 401.915 508.258 401.52 507.396 400.809C506.533 400.098 505.939 399.113 505.713 398.019L502.686 383.14H560.78L557.765 398.019C557.535 399.128 556.929 400.123 556.049 400.836C555.168 401.549 554.068 401.935 552.936 401.928Z" fill="#E6E6E6"/>
<path d="M561.957 388.9H501.436C500.734 388.904 500.055 388.649 499.53 388.183C499.005 387.717 498.671 387.073 498.592 386.375L497.367 375.345C497.283 374.603 497.493 373.859 497.951 373.27C498.409 372.682 499.079 372.296 499.818 372.195H563.158C563.532 372.191 563.904 372.262 564.251 372.403C564.598 372.544 564.913 372.751 565.18 373.014C565.446 373.278 565.658 373.591 565.803 373.936C565.948 374.281 566.024 374.651 566.026 375.026C566.032 375.136 566.032 375.247 566.026 375.357L564.8 386.387C564.724 387.085 564.39 387.729 563.864 388.194C563.338 388.658 562.658 388.91 561.957 388.9Z" fill="#F0F0F0"/>
<path d="M150.395 41.6833H64.8472V135.614H150.395V41.6833Z" fill="#E6E6E6"/>
<path d="M157.713 41.6833H65.9878V135.614H157.713V41.6833Z" fill="#F5F5F5"/>
<path d="M151.867 47.5295H71.834V129.756H151.867V47.5295Z" fill="white"/>
<path d="M99.8637 117.892C95.2893 113.314 92.7197 107.107 92.7197 100.635C92.7197 94.1635 95.2893 87.9566 99.8637 83.3786L123.788 59.4055C128.362 63.9835 130.932 70.1905 130.932 76.6622C130.932 83.1339 128.362 89.3408 123.788 93.9189L99.8637 117.892Z" fill="#F5F5F5"/>
<path d="M124.339 185.142H66.1104V250.859H124.339V185.142Z" fill="#E6E6E6"/>
<path d="M132.759 185.142H67.5317V250.859H132.759V185.142Z" fill="#F5F5F5"/>
<path d="M126.042 191.87H74.2725V244.142H126.042V191.87Z" fill="white"/>
<path d="M95.4547 207.388L89.5182 213.325C86.9336 215.909 86.9336 220.1 89.5182 222.684L95.4547 228.621C98.0393 231.205 102.23 231.205 104.814 228.621L110.751 222.684C113.336 220.1 113.336 215.909 110.751 213.325L104.814 207.388C102.23 204.803 98.0393 204.803 95.4547 207.388Z" fill="#F5F5F5"/>
<path d="M252.306 267.233H225.771V401.083H252.306V267.233Z" fill="#E6E6E6"/>
<path d="M225.772 267.245H111.288V401.095H225.772V267.245Z" fill="#F0F0F0"/>
<path d="M215.342 318.733H121.717V349.582H215.342V318.733Z" fill="#E6E6E6"/>
<path d="M215.342 356.47H121.717V387.319H215.342V356.47Z" fill="#E6E6E6"/>
<path d="M158.008 322.876H179.039C179.723 322.87 180.377 322.595 180.861 322.112C181.345 321.628 181.619 320.974 181.625 320.29C181.622 319.605 181.349 318.949 180.864 318.465C180.38 317.981 179.724 317.707 179.039 317.704H158.008C157.324 317.707 156.67 317.981 156.187 318.466C155.705 318.95 155.434 319.606 155.434 320.29C155.434 320.974 155.705 321.63 156.187 322.114C156.67 322.599 157.324 322.873 158.008 322.876Z" fill="#F0F0F0"/>
<path d="M215.342 281.009H121.717V311.858H215.342V281.009Z" fill="#E6E6E6"/>
<path d="M158.008 285.139H179.039C179.724 285.136 180.38 284.862 180.864 284.378C181.349 283.894 181.622 283.238 181.625 282.553C181.619 281.869 181.345 281.215 180.861 280.732C180.377 280.248 179.723 279.973 179.039 279.967H158.008C157.324 279.97 156.67 280.244 156.187 280.729C155.705 281.213 155.434 281.869 155.434 282.553C155.434 283.237 155.705 283.893 156.187 284.377C156.67 284.862 157.324 285.136 158.008 285.139Z" fill="#F0F0F0"/>
<path d="M158.008 360.613H179.039C179.726 360.609 180.384 360.334 180.869 359.847C181.353 359.36 181.626 358.701 181.626 358.014C181.622 357.33 181.348 356.676 180.864 356.193C180.379 355.711 179.723 355.44 179.039 355.44H158.008C157.67 355.44 157.335 355.507 157.023 355.636C156.711 355.766 156.427 355.955 156.188 356.194C155.949 356.433 155.759 356.717 155.63 357.029C155.501 357.342 155.434 357.676 155.434 358.014C155.432 358.354 155.498 358.69 155.626 359.005C155.755 359.319 155.944 359.605 156.183 359.846C156.422 360.088 156.706 360.28 157.019 360.411C157.332 360.542 157.668 360.611 158.008 360.613Z" fill="#F0F0F0"/>
<path d="M225.771 260.198H107.745V267.233H225.771V260.198Z" fill="#E6E6E6"/>
<path d="M256.007 260.21H225.771V267.245H256.007V260.21Z" fill="#E0E0E0"/>
<path d="M313.763 479.999C432.333 479.999 528.454 472.416 528.454 463.061C528.454 453.707 432.333 446.123 313.763 446.123C195.192 446.123 99.0718 453.707 99.0718 463.061C99.0718 472.416 195.192 479.999 313.763 479.999Z" fill="#F5F5F5"/>
<path d="M487.353 90.4856C485.587 84.6356 483.247 78.9744 480.367 73.5843L484.718 59.3427L456.603 31.1535L442.337 35.5413C436.964 32.6273 431.304 30.2779 425.448 28.5307L418.462 15.3799H378.715L371.717 28.5307C365.841 30.2793 360.161 32.6285 354.766 35.5413L340.512 31.1658L312.323 59.355L316.686 73.6089C313.793 78.9921 311.452 84.6548 309.7 90.5101L296.599 97.5084V137.267L309.749 144.266C311.5 150.119 313.845 155.778 316.748 161.155L312.385 175.384L340.574 203.573L354.828 199.222C360.209 202.117 365.872 204.454 371.729 206.196L378.715 219.384H418.523L425.509 206.233C431.361 204.477 437.019 202.132 442.398 199.234L456.664 203.585L484.853 175.396L480.441 161.179C483.317 155.795 485.649 150.137 487.402 144.29L500.504 137.267V97.4716L487.353 90.4856ZM398.545 189.552C384.271 189.55 370.317 185.314 358.45 177.382C346.582 169.45 337.333 158.177 331.872 144.988C326.411 131.799 324.983 117.287 327.769 103.287C330.556 89.2871 337.431 76.4276 347.525 66.3348C357.62 56.2419 370.481 49.369 384.481 46.5851C398.482 43.8011 412.993 45.2312 426.181 50.6944C439.369 56.1576 450.641 65.4087 458.571 77.2777C466.501 89.1468 470.734 103.101 470.734 117.376C470.731 136.519 463.124 154.877 449.586 168.413C436.048 181.948 417.689 189.552 398.545 189.552Z" fill="#F9BE00"/>
<path d="M398.547 55.323C386.272 55.3279 374.275 58.972 364.072 65.7948C353.868 72.6175 345.917 82.3125 341.223 93.6538C336.529 104.995 335.304 117.474 337.701 129.511C340.099 141.549 346.012 152.606 354.693 161.284C363.374 169.961 374.433 175.87 386.472 178.263C398.511 180.655 410.989 179.425 422.328 174.727C433.668 170.028 443.359 162.073 450.178 151.867C456.997 141.661 460.636 129.662 460.636 117.388C460.636 109.236 459.03 101.163 455.909 93.6312C452.789 86.0995 448.215 79.2564 442.449 73.4928C436.683 67.7292 429.838 63.158 422.305 60.0404C414.772 56.9228 406.699 55.3198 398.547 55.323ZM398.547 171.193C387.905 171.195 377.502 168.042 368.652 162.132C359.803 156.222 352.905 147.82 348.83 137.99C344.756 128.159 343.688 117.341 345.761 106.903C347.835 96.4659 352.957 86.8777 360.48 79.3513C368.003 71.8249 377.589 66.6983 388.026 64.6199C398.462 62.5414 409.281 63.6045 419.113 67.6746C428.945 71.7447 437.35 78.639 443.264 87.4858C449.178 96.3325 452.336 106.734 452.339 117.376C452.31 131.636 446.634 145.304 436.553 155.389C426.472 165.475 412.806 171.157 398.547 171.193Z" fill="#F9BE00"/>
<path opacity="0.4" d="M487.353 90.4856C485.587 84.6356 483.247 78.9744 480.367 73.5843L484.718 59.3427L456.603 31.1535L442.337 35.5413C436.964 32.6273 431.304 30.2779 425.448 28.5307L418.462 15.3799H378.715L371.717 28.5307C365.841 30.2793 360.161 32.6285 354.766 35.5413L340.512 31.1658L312.323 59.355L316.686 73.6089C313.793 78.9921 311.452 84.6548 309.7 90.5101L296.599 97.5084V137.267L309.749 144.266C311.5 150.119 313.845 155.778 316.748 161.155L312.385 175.384L340.574 203.573L354.828 199.222C360.209 202.117 365.872 204.454 371.729 206.196L378.715 219.384H418.523L425.509 206.233C431.361 204.477 437.019 202.132 442.398 199.234L456.664 203.585L484.853 175.396L480.441 161.179C483.317 155.795 485.649 150.137 487.402 144.29L500.504 137.267V97.4716L487.353 90.4856ZM398.545 189.552C384.271 189.55 370.317 185.314 358.45 177.382C346.582 169.45 337.333 158.177 331.872 144.988C326.411 131.799 324.983 117.287 327.769 103.287C330.556 89.2871 337.431 76.4276 347.525 66.3348C357.62 56.2419 370.481 49.369 384.481 46.5851C398.482 43.8011 412.993 45.2312 426.181 50.6944C439.369 56.1576 450.641 65.4087 458.571 77.2777C466.501 89.1468 470.734 103.101 470.734 117.376C470.731 136.519 463.124 154.877 449.586 168.413C436.048 181.948 417.689 189.552 398.545 189.552Z" fill="white"/>
<path opacity="0.4" d="M398.547 55.323C386.272 55.3279 374.275 58.972 364.072 65.7948C353.868 72.6175 345.917 82.3125 341.223 93.6538C336.529 104.995 335.304 117.474 337.701 129.511C340.099 141.549 346.012 152.606 354.693 161.284C363.374 169.961 374.433 175.87 386.472 178.263C398.511 180.655 410.989 179.425 422.328 174.727C433.668 170.028 443.359 162.073 450.178 151.867C456.997 141.661 460.636 129.662 460.636 117.388C460.636 109.236 459.03 101.163 455.909 93.6312C452.789 86.0995 448.215 79.2564 442.449 73.4928C436.683 67.7292 429.838 63.158 422.305 60.0404C414.772 56.9228 406.699 55.3198 398.547 55.323ZM398.547 171.193C387.905 171.195 377.502 168.042 368.652 162.132C359.803 156.222 352.905 147.82 348.83 137.99C344.756 128.159 343.688 117.341 345.761 106.903C347.835 96.4659 352.957 86.8777 360.48 79.3513C368.003 71.8249 377.589 66.6983 388.026 64.6199C398.462 62.5414 409.281 63.6045 419.113 67.6746C428.945 71.7447 437.35 78.639 443.264 87.4858C449.178 96.3325 452.336 106.734 452.339 117.376C452.31 131.636 446.634 145.304 436.553 155.389C426.472 165.475 412.806 171.157 398.547 171.193Z" fill="white"/>
<path d="M236.936 169.281C236.013 166.179 234.781 163.178 233.259 160.321L235.576 152.759L220.611 137.819L213.049 140.136C210.193 138.614 207.192 137.382 204.09 136.459L200.413 129.522H179.234L175.557 136.459C172.456 137.382 169.454 138.614 166.598 140.136L159.036 137.819L144.108 152.759L146.412 160.321C144.896 163.18 143.664 166.181 142.736 169.281L135.75 172.958V194.087L142.736 197.764C143.659 200.866 144.89 203.867 146.412 206.723L144.108 214.285L159.036 229.226L166.598 226.909C169.457 228.426 172.458 229.657 175.557 230.586L179.234 237.511H200.364L204.041 230.586C207.141 229.657 210.141 228.426 213 226.909L220.562 229.226L235.502 214.285L233.186 206.723C234.707 203.867 235.939 200.866 236.863 197.764L243.837 194.087V172.994L236.936 169.281ZM189.799 213.562C183.863 213.562 178.06 211.802 173.124 208.504C168.188 205.206 164.34 200.518 162.069 195.033C159.797 189.549 159.202 183.514 160.361 177.691C161.519 171.869 164.377 166.521 168.575 162.323C172.773 158.125 178.121 155.266 183.943 154.108C189.766 152.95 195.801 153.545 201.286 155.816C206.77 158.088 211.458 161.935 214.756 166.871C218.054 171.807 219.814 177.61 219.814 183.547C219.811 191.506 216.648 199.139 211.02 204.767C205.391 210.396 197.759 213.559 189.799 213.562Z" fill="#263238"/>
<path d="M236.936 169.281C236.013 166.179 234.781 163.178 233.259 160.321L235.576 152.759L220.611 137.819L213.049 140.136C210.193 138.614 207.192 137.382 204.09 136.459L200.413 129.522H179.234L175.557 136.459C172.456 137.382 169.454 138.614 166.598 140.136L159.036 137.819L144.108 152.759L146.412 160.321C144.896 163.18 143.664 166.181 142.736 169.281L135.75 172.958V194.087L142.736 197.764C143.659 200.866 144.89 203.867 146.412 206.723L144.108 214.285L159.036 229.226L166.598 226.909C169.457 228.426 172.458 229.657 175.557 230.586L179.234 237.511H200.364L204.041 230.586C207.141 229.657 210.141 228.426 213 226.909L220.562 229.226L235.502 214.285L233.186 206.723C234.707 203.867 235.939 200.866 236.863 197.764L243.837 194.087V172.994L236.936 169.281ZM189.799 213.562C183.863 213.562 178.06 211.802 173.124 208.504C168.188 205.206 164.34 200.518 162.069 195.033C159.797 189.549 159.202 183.514 160.361 177.691C161.519 171.869 164.377 166.521 168.575 162.323C172.773 158.125 178.121 155.266 183.943 154.108C189.766 152.95 195.801 153.545 201.286 155.816C206.77 158.088 211.458 161.935 214.756 166.871C218.054 171.807 219.814 177.61 219.814 183.547C219.811 191.506 216.648 199.139 211.02 204.767C205.391 210.396 197.759 213.559 189.799 213.562Z" fill="#F9BE00"/>
<path d="M189.8 173.607C187.831 173.607 185.907 174.191 184.271 175.284C182.634 176.378 181.358 177.932 180.605 179.751C179.852 181.569 179.655 183.57 180.039 185.501C180.423 187.431 181.371 189.204 182.763 190.596C184.154 191.988 185.928 192.936 187.858 193.32C189.789 193.704 191.79 193.507 193.608 192.754C195.427 192 196.981 190.725 198.074 189.088C199.168 187.452 199.752 185.528 199.752 183.559C199.752 180.92 198.703 178.388 196.837 176.522C194.97 174.656 192.439 173.607 189.8 173.607Z" fill="#263238"/>
<path opacity="0.4" d="M236.936 169.281C236.013 166.179 234.781 163.178 233.259 160.321L235.576 152.759L220.611 137.819L213.049 140.136C210.193 138.614 207.192 137.382 204.09 136.459L200.413 129.522H179.234L175.557 136.459C172.456 137.382 169.454 138.614 166.598 140.136L159.036 137.819L144.108 152.759L146.412 160.321C144.896 163.18 143.664 166.181 142.736 169.281L135.75 172.958V194.087L142.736 197.764C143.659 200.866 144.89 203.867 146.412 206.723L144.108 214.285L159.036 229.226L166.598 226.909C169.457 228.426 172.458 229.657 175.557 230.586L179.234 237.511H200.364L204.041 230.586C207.141 229.657 210.141 228.426 213 226.909L220.562 229.226L235.502 214.285L233.186 206.723C234.707 203.867 235.939 200.866 236.863 197.764L243.837 194.087V172.994L236.936 169.281ZM189.799 213.562C183.863 213.562 178.06 211.802 173.124 208.504C168.188 205.206 164.34 200.518 162.069 195.033C159.797 189.549 159.202 183.514 160.361 177.691C161.519 171.869 164.377 166.521 168.575 162.323C172.773 158.125 178.121 155.266 183.943 154.108C189.766 152.95 195.801 153.545 201.286 155.816C206.77 158.088 211.458 161.935 214.756 166.871C218.054 171.807 219.814 177.61 219.814 183.547C219.811 191.506 216.648 199.139 211.02 204.767C205.391 210.396 197.759 213.559 189.799 213.562Z" fill="white"/>
<path opacity="0.2" d="M189.8 173.607C187.831 173.607 185.907 174.191 184.271 175.284C182.634 176.378 181.358 177.932 180.605 179.751C179.852 181.569 179.655 183.57 180.039 185.501C180.423 187.431 181.371 189.204 182.763 190.596C184.154 191.988 185.928 192.936 187.858 193.32C189.789 193.704 191.79 193.507 193.608 192.754C195.427 192 196.981 190.725 198.074 189.088C199.168 187.452 199.752 185.528 199.752 183.559C199.752 180.92 198.703 178.388 196.837 176.522C194.97 174.656 192.439 173.607 189.8 173.607Z" fill="white"/>
<path d="M256.154 150.124L248.065 146.791L247.771 143.751C247.014 143.113 246.309 142.416 245.663 141.667L242.648 141.361L239.302 133.284L241.25 130.968C241.165 129.977 241.165 128.98 241.25 127.99L239.302 125.685L242.672 117.658L245.687 117.363C246.343 116.592 247.055 115.87 247.82 115.206L248.114 112.179L256.203 108.845L258.507 110.782C259.499 110.708 260.494 110.708 261.485 110.782L263.79 108.845L271.879 112.179L272.161 115.206C272.911 115.855 273.616 116.555 274.269 117.302L277.284 117.596L280.617 125.673L278.681 127.977C278.767 128.968 278.767 129.965 278.681 130.956L280.617 133.272L277.284 141.349L274.269 141.655C273.622 142.408 272.917 143.109 272.161 143.751L271.879 146.778L263.79 150.112L261.485 148.175C260.498 148.249 259.507 148.249 258.519 148.175L256.154 150.124ZM262.012 146.447L264.108 148.175L270.236 145.638L270.481 142.93L270.776 142.709C271.635 142.013 272.427 141.238 273.141 140.393L273.362 140.111L276.07 139.854L278.607 133.725L276.989 131.568V131.213C277.1 130.1 277.1 128.98 276.989 127.867V127.463L278.718 125.354L276.181 119.226L273.484 118.981L273.251 118.687C272.53 117.859 271.73 117.104 270.861 116.432L270.567 116.199L270.322 113.503L264.194 110.954L262.061 112.755H261.706C260.594 112.633 259.472 112.633 258.36 112.755H257.992L255.897 111.015L249.769 113.564L249.511 116.26L249.241 116.493C248.373 117.178 247.576 117.951 246.864 118.797L246.631 119.092L243.922 119.337L241.361 125.465L243.101 127.561V127.916C242.979 129.028 242.979 130.15 243.101 131.262V131.63L241.361 133.591L243.91 139.719L246.606 139.976L246.839 140.246C247.543 141.119 248.335 141.916 249.205 142.623L249.487 142.844L249.744 145.565L255.872 148.102L257.98 146.374H258.336C259.448 146.484 260.569 146.484 261.681 146.374L262.012 146.447Z" fill="#263238"/>
<path d="M263.618 138.15C261.902 138.862 260.014 139.05 258.192 138.689C256.37 138.329 254.696 137.435 253.381 136.123C252.067 134.81 251.172 133.137 250.809 131.315C250.445 129.494 250.631 127.605 251.341 125.889C252.052 124.173 253.256 122.706 254.8 121.674C256.345 120.642 258.161 120.091 260.018 120.092C261.876 120.092 263.691 120.644 265.235 121.677C266.779 122.709 267.982 124.177 268.692 125.894C269.164 127.031 269.408 128.25 269.409 129.481C269.411 130.712 269.169 131.932 268.699 133.07C268.229 134.208 267.54 135.243 266.67 136.114C265.8 136.986 264.767 137.677 263.63 138.15H263.618Z" fill="#263238"/>
<path d="M196.098 130.968C195.945 130.968 195.799 130.907 195.691 130.799C195.583 130.691 195.522 130.545 195.522 130.392V127.463C195.522 127.31 195.583 127.163 195.691 127.055C195.799 126.947 195.945 126.886 196.098 126.886C196.251 126.886 196.397 126.947 196.505 127.055C196.613 127.163 196.674 127.31 196.674 127.463V130.343C196.681 130.422 196.671 130.503 196.645 130.578C196.619 130.654 196.578 130.723 196.524 130.782C196.47 130.841 196.404 130.888 196.33 130.92C196.257 130.952 196.178 130.968 196.098 130.968Z" fill="#F9BE00"/>
<path d="M196.098 122.302C195.945 122.302 195.799 122.242 195.691 122.134C195.583 122.025 195.522 121.879 195.522 121.726V115.941C195.522 115.789 195.583 115.642 195.691 115.534C195.799 115.426 195.945 115.365 196.098 115.365C196.251 115.365 196.397 115.426 196.505 115.534C196.613 115.642 196.674 115.789 196.674 115.941V121.726C196.674 121.879 196.613 122.025 196.505 122.134C196.397 122.242 196.251 122.302 196.098 122.302ZM196.098 110.732C195.945 110.732 195.799 110.672 195.691 110.564C195.583 110.456 195.522 110.309 195.522 110.156V104.371C195.522 104.219 195.583 104.072 195.691 103.964C195.799 103.856 195.945 103.795 196.098 103.795C196.251 103.795 196.397 103.856 196.505 103.964C196.613 104.072 196.674 104.219 196.674 104.371V110.156C196.674 110.309 196.613 110.456 196.505 110.564C196.397 110.672 196.251 110.732 196.098 110.732ZM196.098 99.1749C195.944 99.1717 195.798 99.1083 195.69 98.9983C195.582 98.8883 195.522 98.7405 195.522 98.5866V92.8139C195.522 92.6612 195.583 92.5146 195.691 92.4066C195.799 92.2986 195.945 92.2379 196.098 92.2379C196.251 92.2379 196.397 92.2986 196.505 92.4066C196.613 92.5146 196.674 92.6612 196.674 92.8139V98.5866C196.674 98.7405 196.614 98.8883 196.506 98.9983C196.398 99.1083 196.252 99.1717 196.098 99.1749ZM196.098 87.5683C196.024 87.5733 195.95 87.5631 195.88 87.5383C195.811 87.5135 195.747 87.4746 195.693 87.424C195.639 87.3734 195.596 87.3122 195.566 87.2443C195.537 87.1763 195.522 87.1031 195.522 87.029V86.9432C195.522 84.9746 195.849 83.0196 196.49 81.1583C196.543 81.0154 196.649 80.8985 196.786 80.8322C196.923 80.7659 197.081 80.7554 197.226 80.8029C197.298 80.8262 197.366 80.8641 197.423 80.9142C197.481 80.9643 197.528 81.0256 197.561 81.0944C197.594 81.1632 197.613 81.238 197.617 81.3143C197.62 81.3906 197.608 81.4668 197.581 81.5383C196.979 83.2766 196.672 85.1036 196.674 86.9432C196.675 87.1009 196.615 87.2528 196.509 87.3688C196.402 87.4847 196.255 87.5559 196.098 87.5683ZM199.775 76.8809C199.646 76.883 199.52 76.8396 199.419 76.7584C199.36 76.7117 199.31 76.6538 199.273 76.5879C199.236 76.5219 199.212 76.4494 199.203 76.3742C199.194 76.2991 199.199 76.2229 199.22 76.1501C199.24 76.0772 199.275 76.009 199.321 75.9495C200.567 74.3898 202.067 73.0514 203.758 71.9907C203.822 71.9505 203.894 71.9233 203.969 71.9108C204.044 71.8983 204.121 71.9006 204.195 71.9177C204.268 71.9347 204.338 71.9662 204.4 72.0103C204.462 72.0544 204.515 72.1102 204.555 72.1746C204.595 72.239 204.622 72.3106 204.635 72.3855C204.647 72.4604 204.645 72.537 204.628 72.611C204.611 72.6849 204.579 72.7548 204.535 72.8167C204.491 72.8785 204.435 72.931 204.371 72.9712C202.791 73.9521 201.39 75.1956 200.228 76.6481C200.141 76.7656 200.015 76.8482 199.873 76.8809H199.775ZM209.396 70.8754C209.253 70.8765 209.115 70.8245 209.008 70.7294C208.902 70.6344 208.834 70.503 208.819 70.361C208.803 70.2189 208.842 70.0763 208.926 69.9607C209.01 69.8451 209.134 69.7649 209.273 69.7356C210.529 69.4558 211.811 69.3161 213.097 69.3189H215.144C215.22 69.3189 215.295 69.3338 215.365 69.3627C215.434 69.3917 215.498 69.4341 215.551 69.4876C215.605 69.5411 215.647 69.6046 215.676 69.6745C215.705 69.7444 215.72 69.8193 215.72 69.8949C215.72 69.9706 215.705 70.0455 215.676 70.1154C215.647 70.1853 215.605 70.2488 215.551 70.3023C215.498 70.3557 215.434 70.3982 215.365 70.4271C215.295 70.4561 215.22 70.471 215.144 70.471H213.257C212.053 70.4722 210.853 70.6037 209.678 70.8632L209.396 70.8754ZM307.678 70.471H301.991C301.838 70.471 301.692 70.4103 301.584 70.3023C301.476 70.1942 301.415 70.0477 301.415 69.8949C301.415 69.7422 301.476 69.5956 301.584 69.4876C301.692 69.3796 301.838 69.3189 301.991 69.3189H307.776C307.852 69.3189 307.927 69.3338 307.997 69.3627C308.066 69.3917 308.13 69.4341 308.183 69.4876C308.237 69.5411 308.279 69.6046 308.308 69.6745C308.337 69.7444 308.352 69.8193 308.352 69.8949C308.352 69.9706 308.337 70.0455 308.308 70.1154C308.279 70.1853 308.237 70.2488 308.183 70.3023C308.13 70.3557 308.066 70.3982 307.997 70.4271C307.927 70.4561 307.852 70.471 307.776 70.471H307.678ZM296.108 70.471H290.47C290.395 70.471 290.32 70.4561 290.25 70.4271C290.18 70.3982 290.117 70.3557 290.063 70.3023C290.01 70.2488 289.967 70.1853 289.938 70.1154C289.909 70.0455 289.894 69.9706 289.894 69.8949C289.894 69.8193 289.909 69.7444 289.938 69.6745C289.967 69.6046 290.01 69.5411 290.063 69.4876C290.117 69.4341 290.18 69.3917 290.25 69.3627C290.32 69.3338 290.395 69.3189 290.47 69.3189H296.243C296.319 69.3189 296.394 69.3338 296.463 69.3627C296.533 69.3917 296.597 69.4341 296.65 69.4876C296.704 69.5411 296.746 69.6046 296.775 69.6745C296.804 69.7444 296.819 69.8193 296.819 69.8949C296.819 69.9706 296.804 70.0455 296.775 70.1154C296.746 70.1853 296.704 70.2488 296.65 70.3023C296.597 70.3557 296.533 70.3982 296.463 70.4271C296.394 70.4561 296.319 70.471 296.243 70.471H296.108ZM284.551 70.471H278.766C278.613 70.471 278.466 70.4103 278.358 70.3023C278.25 70.1942 278.19 70.0477 278.19 69.8949C278.19 69.7422 278.25 69.5956 278.358 69.4876C278.466 69.3796 278.613 69.3189 278.766 69.3189H284.551C284.626 69.3189 284.701 69.3338 284.771 69.3627C284.841 69.3917 284.904 69.4341 284.958 69.4876C285.011 69.5411 285.054 69.6046 285.083 69.6745C285.112 69.7444 285.127 69.8193 285.127 69.8949C285.127 69.9706 285.112 70.0455 285.083 70.1154C285.054 70.1853 285.011 70.2488 284.958 70.3023C284.904 70.3557 284.841 70.3982 284.771 70.4271C284.701 70.4561 284.626 70.471 284.551 70.471ZM272.981 70.471H267.196C267.043 70.471 266.897 70.4103 266.789 70.3023C266.681 70.1942 266.62 70.0477 266.62 69.8949C266.62 69.7422 266.681 69.5956 266.789 69.4876C266.897 69.3796 267.043 69.3189 267.196 69.3189H272.981C273.057 69.3189 273.131 69.3338 273.201 69.3627C273.271 69.3917 273.335 69.4341 273.388 69.4876C273.442 69.5411 273.484 69.6046 273.513 69.6745C273.542 69.7444 273.557 69.8193 273.557 69.8949C273.557 69.9706 273.542 70.0455 273.513 70.1154C273.484 70.1853 273.442 70.2488 273.388 70.3023C273.335 70.3557 273.271 70.3982 273.201 70.4271C273.131 70.4561 273.057 70.471 272.981 70.471ZM261.411 70.471H255.626C255.473 70.471 255.327 70.4103 255.219 70.3023C255.111 70.1942 255.05 70.0477 255.05 69.8949C255.05 69.7422 255.111 69.5956 255.219 69.4876C255.327 69.3796 255.473 69.3189 255.626 69.3189H261.411C261.487 69.3189 261.562 69.3338 261.632 69.3627C261.701 69.3917 261.765 69.4341 261.818 69.4876C261.872 69.5411 261.914 69.6046 261.943 69.6745C261.972 69.7444 261.987 69.8193 261.987 69.8949C261.987 69.9706 261.972 70.0455 261.943 70.1154C261.914 70.1853 261.872 70.2488 261.818 70.3023C261.765 70.3557 261.701 70.3982 261.632 70.4271C261.562 70.4561 261.487 70.471 261.411 70.471ZM249.841 70.471H244.069C243.993 70.471 243.918 70.4561 243.848 70.4271C243.778 70.3982 243.715 70.3557 243.661 70.3023C243.608 70.2488 243.565 70.1853 243.536 70.1154C243.507 70.0455 243.493 69.9706 243.493 69.8949C243.493 69.8193 243.507 69.7444 243.536 69.6745C243.565 69.6046 243.608 69.5411 243.661 69.4876C243.715 69.4341 243.778 69.3917 243.848 69.3627C243.918 69.3338 243.993 69.3189 244.069 69.3189H249.841C249.917 69.3189 249.992 69.3338 250.062 69.3627C250.132 69.3917 250.195 69.4341 250.249 69.4876C250.302 69.5411 250.344 69.6046 250.373 69.6745C250.402 69.7444 250.417 69.8193 250.417 69.8949C250.417 69.9706 250.402 70.0455 250.373 70.1154C250.344 70.1853 250.302 70.2488 250.249 70.3023C250.195 70.3557 250.132 70.3982 250.062 70.4271C249.992 70.4561 249.917 70.471 249.841 70.471ZM238.284 70.471H232.499C232.346 70.471 232.2 70.4103 232.091 70.3023C231.983 70.1942 231.923 70.0477 231.923 69.8949C231.923 69.7422 231.983 69.5956 232.091 69.4876C232.2 69.3796 232.346 69.3189 232.499 69.3189H238.284C238.359 69.3189 238.434 69.3338 238.504 69.3627C238.574 69.3917 238.638 69.4341 238.691 69.4876C238.744 69.5411 238.787 69.6046 238.816 69.6745C238.845 69.7444 238.86 69.8193 238.86 69.8949C238.86 69.9706 238.845 70.0455 238.816 70.1154C238.787 70.1853 238.744 70.2488 238.691 70.3023C238.638 70.3557 238.574 70.3982 238.504 70.4271C238.434 70.4561 238.359 70.471 238.284 70.471ZM226.714 70.471H220.929C220.776 70.471 220.63 70.4103 220.522 70.3023C220.414 70.1942 220.353 70.0477 220.353 69.8949C220.353 69.7422 220.414 69.5956 220.522 69.4876C220.63 69.3796 220.776 69.3189 220.929 69.3189H226.714C226.79 69.3189 226.864 69.3338 226.934 69.3627C227.004 69.3917 227.068 69.4341 227.121 69.4876C227.175 69.5411 227.217 69.6046 227.246 69.6745C227.275 69.7444 227.29 69.8193 227.29 69.8949C227.29 69.9706 227.275 70.0455 227.246 70.1154C227.217 70.1853 227.175 70.2488 227.121 70.3023C227.068 70.3557 227.004 70.3982 226.934 70.4271C226.864 70.4561 226.79 70.471 226.714 70.471Z" fill="#F9BE00"/>
<path d="M316.467 70.4709H313.574C313.421 70.4709 313.275 70.4102 313.167 70.3022C313.059 70.1942 312.998 70.0477 312.998 69.8949C312.998 69.7421 313.059 69.5956 313.167 69.4876C313.275 69.3795 313.421 69.3188 313.574 69.3188H316.467C316.619 69.3188 316.766 69.3795 316.874 69.4876C316.982 69.5956 317.043 69.7421 317.043 69.8949C317.043 70.0477 316.982 70.1942 316.874 70.3022C316.766 70.4102 316.619 70.4709 316.467 70.4709Z" fill="#F9BE00"/>
<path d="M195.804 461.775H201.846L201.846 272.944H195.804L195.804 461.775Z" fill="#263238"/>
<path d="M444.739 357.635H344.949V343.798H444.739C445.945 343.798 447.102 344.277 447.954 345.13C448.807 345.982 449.286 347.139 449.286 348.345V353.088C449.286 353.685 449.169 354.276 448.94 354.828C448.711 355.38 448.377 355.881 447.954 356.303C447.532 356.725 447.031 357.06 446.479 357.289C445.927 357.517 445.336 357.635 444.739 357.635Z" fill="#F9BE00"/>
<path d="M440.902 462.817L433.671 348.528" stroke="#F9BE00" stroke-width="0.650781" stroke-linecap="round" stroke-linejoin="round"/>
<path d="M413.216 468.48L405.985 354.191" stroke="#F9BE00" stroke-width="0.650781" stroke-linecap="round" stroke-linejoin="round"/>
<path d="M340.647 462.817L347.878 348.528" stroke="#F9BE00" stroke-width="0.650781" stroke-linecap="round" stroke-linejoin="round"/>
<path d="M368.334 468.48L375.566 354.191" stroke="#F9BE00" stroke-width="0.650781" stroke-linecap="round" stroke-linejoin="round"/>
<path d="M453.599 348.528H353.81V334.691H453.599C454.805 334.691 455.962 335.17 456.815 336.023C457.667 336.875 458.146 338.032 458.146 339.238V343.981C458.146 345.187 457.667 346.344 456.815 347.196C455.962 348.049 454.805 348.528 453.599 348.528Z" fill="#F9BE00"/>
<path opacity="0.2" d="M453.599 348.528H353.81V334.691H453.599C454.805 334.691 455.962 335.17 456.815 336.023C457.667 336.875 458.146 338.032 458.146 339.238V343.981C458.146 345.187 457.667 346.344 456.815 347.196C455.962 348.049 454.805 348.528 453.599 348.528Z" fill="black"/>
<path d="M353.099 466.286H359.141V277.455H353.099V466.286Z" fill="#263238"/>
<path d="M373.69 291.819C373.69 291.819 304.627 294.417 293.155 322.141C293.155 322.141 294.749 404.71 303.99 431.809L323.759 429.566L320.597 349.3L392.038 291.843L373.69 291.819Z" fill="#263238"/>
<path opacity="0.2" d="M373.69 291.819C373.69 291.819 304.627 294.417 293.155 322.141C293.155 322.141 294.749 404.71 303.99 431.809L323.759 429.566L320.597 349.3L392.038 291.843L373.69 291.819Z" fill="black"/>
<path d="M320.485 450.23H308.143L307.972 442.006L307.849 435.559L319.909 436.294L320.142 442.006L320.485 450.23Z" fill="#B55B52"/>
<path opacity="0.2" d="M320.142 442.006H307.972L307.849 435.559L319.909 436.294L320.142 442.006Z" fill="black"/>
<path d="M326.001 438.182L299.577 438.979L294.76 429.174L325.266 428.892L326.001 438.182Z" fill="#F9BE00"/>
<path d="M304.982 452.093C304.982 452.093 305.619 444.85 303.094 445.855C300.569 446.86 303.388 450.561 304.982 452.093Z" stroke="#F9BE00" stroke-width="0.216927" stroke-miterlimit="10"/>
<path d="M304.982 452.093C304.982 452.093 299.552 448.293 298.167 450.23C296.782 452.166 304.982 452.093 304.982 452.093Z" stroke="#F9BE00" stroke-width="0.216927" stroke-miterlimit="10"/>
<path d="M309.283 448.575L319.088 448.673C319.78 448.689 320.441 448.961 320.944 449.437C321.446 449.912 321.755 450.557 321.809 451.247L322.495 459.912C322.528 460.288 322.482 460.666 322.358 461.023C322.235 461.379 322.038 461.706 321.78 461.981C321.522 462.256 321.209 462.474 320.862 462.62C320.514 462.766 320.139 462.837 319.762 462.829C314.455 462.67 303.535 462.388 299.662 462.498C294.478 462.645 287.112 462.731 286.058 460.758C285.758 460.229 285.656 459.61 285.771 459.013C285.885 458.415 286.209 457.878 286.683 457.498C286.683 457.498 300.814 456.186 307.31 449.47C307.562 449.196 307.867 448.976 308.206 448.823C308.545 448.669 308.911 448.585 309.283 448.575Z" fill="#263238"/>
<path d="M435.656 291.819C435.656 291.819 436.968 307.911 436.478 320.351C435.914 334.691 405.041 347.315 360.097 339.961C360.097 339.961 356.592 364.191 344.164 386.534C331.737 408.877 312.298 442.006 312.298 442.006L293.179 429.566C293.179 429.566 318.353 359.706 323.145 340.316C327.937 320.927 329.837 311.625 343.539 305.57C357.242 299.516 387.208 291.819 387.208 291.819H435.656Z" fill="#263238"/>
<path d="M304.982 438.354L302.715 441.834L297.726 449.519L288.154 443.943L293.167 436.148L295.116 433.133L304.982 438.354Z" fill="#B55B52"/>
<path opacity="0.2" d="M304.982 438.354L302.715 441.834L293.167 436.148L295.116 433.133L304.982 438.354Z" fill="black"/>
<path d="M317.275 435.559L292.211 420.557L288.154 430.571L311.943 444.31L317.275 435.559Z" fill="#F9BE00"/>
<path d="M281.598 444.31C281.598 444.31 283.424 438.035 281.377 437.913C279.331 437.79 281.598 444.31 281.598 444.31Z" stroke="#F9BE00" stroke-width="0.216927" stroke-miterlimit="10"/>
<path d="M281.119 444.077C281.119 444.077 278.287 437.263 276.008 438.783C273.728 440.302 281.119 444.077 281.119 444.077Z" stroke="#F9BE00" stroke-width="0.216927" stroke-miterlimit="10"/>
<path d="M289.391 443.256L297.75 448.158C298.337 448.503 298.772 449.058 298.965 449.711C299.159 450.365 299.097 451.067 298.792 451.676L295.004 459.361C294.837 459.696 294.602 459.994 294.313 460.234C294.025 460.474 293.69 460.652 293.329 460.755C292.968 460.859 292.59 460.887 292.218 460.836C291.846 460.786 291.489 460.659 291.168 460.464C286.67 457.694 277.392 452.019 274.01 450.193C269.45 447.742 263.065 444.163 263.151 441.969C263.168 441.367 263.398 440.791 263.799 440.342C264.201 439.894 264.748 439.602 265.345 439.518C265.345 439.518 278.189 445.425 287.197 442.974C287.563 442.873 287.946 442.846 288.323 442.894C288.699 442.942 289.063 443.065 289.391 443.256Z" fill="#263238"/>
<path d="M358.076 221.493C358.076 221.493 355.502 249.609 356.532 256.84C356.532 256.84 329.666 260.774 316.086 258.911L306.992 256.632L295.619 259.414L298.719 268.422H307.814C307.814 268.422 314.432 270.285 317.324 268.422C317.324 268.422 340.059 272.969 353.492 271.523C366.925 270.077 371.092 264.966 371.693 254.781C372.256 244.976 378.715 223.136 373.556 218.172L358.076 221.493Z" fill="#B55B52"/>
<path d="M450.34 224.656C450.34 224.656 440.033 198.476 430.007 192.569C419.982 186.662 373.556 197.962 373.556 197.962C373.556 197.962 353.639 204.372 352.5 235.49L370.798 243.248L373.69 291.819H435.658L435.327 228.909L450.34 224.656Z" fill="#F9BE00"/>
<path d="M374.401 146.657C374.401 146.657 368.273 145.885 366.606 141.289C364.939 136.693 371.337 139.009 370.798 130.7C370.258 122.39 379.806 120.404 386.731 124.057C393.655 127.709 404.649 123.726 408.792 128.714C412.934 133.702 411.12 138.348 411.12 138.348C411.12 138.348 423.033 151.829 407.934 161.034C392.834 170.238 374.401 146.657 374.401 146.657Z" fill="#263238"/>
<path d="M410.433 191.453C403.815 201.54 397.858 202.582 389.879 202.57C380.92 202.57 383.923 196.209 383.923 196.209C387.673 194.334 390.407 192.324 390.835 187.703C390.922 186.807 390.943 185.906 390.897 185.007C390.809 182.926 390.451 180.866 389.83 178.879C377.145 180.031 372.672 173.841 371.091 162.161C370.209 154.977 371.516 147.694 374.841 141.264C382.195 149.917 396.032 143.14 396.032 143.14C392.147 154.378 401.658 158.411 401.658 158.411C405.334 156.107 408.276 158.117 407.994 162.59C407.939 163.838 407.512 165.041 406.767 166.044C406.022 167.046 404.994 167.803 403.815 168.216C403.092 188.132 410.433 191.453 410.433 191.453Z" fill="#B55B52"/>
<path d="M378.334 166.757C378.235 166.758 378.138 166.72 378.065 166.651C377.993 166.583 377.948 166.489 377.942 166.39C377.939 166.338 377.946 166.287 377.962 166.238C377.979 166.189 378.005 166.144 378.04 166.105C378.074 166.066 378.115 166.035 378.162 166.012C378.208 165.989 378.258 165.976 378.31 165.973C382.747 165.74 384.438 163.608 384.499 163.583C384.53 163.543 384.569 163.51 384.613 163.485C384.657 163.461 384.706 163.445 384.756 163.439C384.806 163.433 384.857 163.438 384.906 163.452C384.954 163.466 384.999 163.49 385.039 163.522C385.08 163.553 385.114 163.592 385.14 163.637C385.166 163.682 385.183 163.731 385.19 163.782C385.197 163.834 385.193 163.886 385.18 163.936C385.167 163.986 385.144 164.032 385.112 164.073C385.039 164.171 383.176 166.525 378.359 166.757H378.334Z" fill="#263238"/>
<path d="M378.334 161.928L377.611 154.489L374.4 161.254C374.94 161.7 375.587 161.996 376.277 162.114C376.967 162.232 377.676 162.168 378.334 161.928Z" fill="#A02724"/>
<path d="M383.286 154.489C383.286 155.42 383.715 156.18 384.254 156.18C384.793 156.18 385.222 155.42 385.222 154.489C385.222 153.557 384.793 152.798 384.254 152.798C383.715 152.798 383.286 153.557 383.286 154.489Z" fill="#263238"/>
<path d="M373.432 156.18C373.967 156.18 374.4 155.423 374.4 154.489C374.4 153.555 373.967 152.798 373.432 152.798C372.897 152.798 372.464 153.555 372.464 154.489C372.464 155.423 372.897 156.18 373.432 156.18Z" fill="#263238"/>
<path d="M389.745 150.751C389.661 150.753 389.577 150.734 389.502 150.695C389.427 150.657 389.363 150.6 389.316 150.53C389.255 150.432 387.649 148.275 383.923 148.961C383.856 148.975 383.786 148.976 383.718 148.962C383.65 148.949 383.586 148.922 383.529 148.883C383.471 148.844 383.423 148.794 383.385 148.736C383.348 148.678 383.322 148.613 383.311 148.545C383.289 148.408 383.32 148.269 383.397 148.155C383.475 148.041 383.593 147.961 383.727 147.932C388.14 147.123 390.088 149.807 390.174 149.929C390.227 150.008 390.258 150.1 390.263 150.194C390.268 150.289 390.248 150.384 390.204 150.468C390.16 150.552 390.094 150.622 390.013 150.672C389.933 150.722 389.84 150.749 389.745 150.751Z" fill="#263238"/>
<path d="M371.791 150.065C371.706 150.063 371.622 150.042 371.546 150.004C371.485 149.972 371.431 149.93 371.387 149.878C371.343 149.826 371.31 149.765 371.29 149.7C371.269 149.635 371.262 149.567 371.268 149.499C371.274 149.431 371.293 149.365 371.325 149.305C371.739 148.616 372.347 148.066 373.074 147.723C373.8 147.381 374.612 147.261 375.406 147.381C375.474 147.39 375.54 147.412 375.599 147.447C375.658 147.481 375.71 147.527 375.751 147.582C375.792 147.637 375.822 147.699 375.838 147.766C375.855 147.832 375.858 147.901 375.848 147.969C375.84 148.036 375.819 148.102 375.786 148.161C375.753 148.22 375.708 148.271 375.654 148.313C375.6 148.354 375.538 148.384 375.473 148.4C375.407 148.417 375.339 148.421 375.272 148.41C374.69 148.323 374.096 148.406 373.561 148.65C373.026 148.893 372.573 149.287 372.257 149.783C372.21 149.866 372.143 149.936 372.061 149.985C371.979 150.035 371.886 150.062 371.791 150.065Z" fill="#263238"/>
<path d="M370.956 160.286C369.81 160.283 368.69 159.941 367.738 159.303C366.787 158.664 366.046 157.758 365.609 156.699C365.172 155.639 365.059 154.474 365.284 153.35C365.509 152.226 366.062 151.195 366.873 150.385C367.684 149.575 368.717 149.025 369.842 148.802C370.966 148.579 372.131 148.695 373.189 149.134C374.248 149.573 375.153 150.316 375.789 151.269C376.426 152.222 376.765 153.343 376.765 154.489C376.765 155.251 376.615 156.006 376.323 156.71C376.031 157.414 375.603 158.054 375.063 158.592C374.523 159.131 373.883 159.557 373.178 159.848C372.473 160.139 371.718 160.287 370.956 160.286ZM370.956 149.464C369.962 149.464 368.99 149.758 368.164 150.31C367.338 150.863 366.694 151.647 366.313 152.566C365.933 153.484 365.833 154.494 366.027 155.469C366.221 156.444 366.7 157.339 367.403 158.042C368.105 158.745 369.001 159.223 369.975 159.417C370.95 159.611 371.961 159.511 372.879 159.131C373.797 158.751 374.582 158.107 375.134 157.28C375.686 156.454 375.981 155.482 375.981 154.489C375.965 153.166 375.428 151.904 374.488 150.975C373.547 150.046 372.278 149.525 370.956 149.525V149.464Z" fill="white"/>
<path d="M384.843 160.286C383.696 160.286 382.576 159.946 381.622 159.309C380.669 158.672 379.926 157.766 379.487 156.707C379.048 155.648 378.934 154.482 379.157 153.358C379.381 152.233 379.933 151.2 380.744 150.389C381.555 149.579 382.588 149.026 383.712 148.803C384.837 148.579 386.002 148.694 387.062 149.133C388.121 149.571 389.026 150.314 389.663 151.268C390.3 152.221 390.64 153.342 390.64 154.489C390.637 156.025 390.025 157.498 388.939 158.584C387.852 159.671 386.38 160.282 384.843 160.286ZM384.843 149.464C383.849 149.461 382.876 149.754 382.048 150.304C381.22 150.855 380.574 151.639 380.192 152.557C379.81 153.475 379.708 154.486 379.901 155.461C380.093 156.437 380.571 157.333 381.273 158.037C381.975 158.741 382.871 159.221 383.846 159.416C384.821 159.611 385.832 159.512 386.751 159.132C387.67 158.752 388.455 158.108 389.008 157.282C389.561 156.455 389.856 155.483 389.856 154.489C389.837 153.17 389.301 151.911 388.363 150.983C387.426 150.055 386.162 149.531 384.843 149.525V149.464Z" fill="white"/>
<path d="M376.766 154.489H378.997" stroke="white" stroke-width="0.216927" stroke-miterlimit="10"/>
<path d="M390.224 155.555L401.095 158.166" stroke="white" stroke-width="0.216927" stroke-linecap="round" stroke-linejoin="round"/>
<path opacity="0.2" d="M394.036 177.714C393.341 180.266 392.285 182.705 390.898 184.958C390.811 182.877 390.452 180.817 389.832 178.829L394.036 177.714Z" fill="black"/>
<path opacity="0.2" d="M370.797 243.248V235.49L367.66 241.924L370.797 243.248Z" fill="black"/>
<path opacity="0.2" d="M421.942 232.891L419.552 218.931L418.878 234.129L421.942 232.891Z" fill="black"/>
<path d="M439.04 262.184C438.893 272.393 434.297 277.48 420.852 278.926C407.407 280.372 384.684 275.825 384.684 275.825C381.791 277.688 375.173 275.825 375.173 275.825H366.079L362.99 266.817L374.352 264.047L383.446 266.314C397.087 268.177 423.952 264.255 423.952 264.255C423.18 258.838 422.31 241.152 421.942 232.892L437.973 228.149C439.554 238.995 439.174 253.384 439.04 262.184Z" fill="#B55B52"/>
<path d="M201.944 208.869L212.791 264.157C213.031 265.355 213.679 266.433 214.624 267.209C215.569 267.984 216.753 268.408 217.975 268.41H309.81C310.581 268.409 311.342 268.24 312.041 267.913C312.739 267.587 313.357 267.111 313.851 266.52C314.345 265.928 314.704 265.236 314.902 264.491C315.099 263.746 315.131 262.967 314.995 262.208L305.19 206.921C304.974 205.703 304.336 204.601 303.387 203.808C302.439 203.014 301.242 202.58 300.006 202.582H207.128C206.348 202.578 205.577 202.747 204.87 203.078C204.164 203.409 203.54 203.893 203.043 204.495C202.547 205.097 202.191 205.801 202.001 206.558C201.811 207.315 201.791 208.104 201.944 208.869Z" fill="#222222"/>
<path opacity="0.2" d="M301.342 202.582L312.814 268.41C313.217 268.411 313.615 268.323 313.98 268.153C314.345 267.983 314.668 267.735 314.927 267.427C315.185 267.118 315.372 266.756 315.475 266.367C315.578 265.977 315.595 265.57 315.523 265.174L304.774 204.837C304.661 204.202 304.327 203.627 303.832 203.214C303.336 202.802 302.71 202.578 302.065 202.582H301.342Z" fill="black"/>
<path d="M213.87 273.692H355.11C355.111 272.998 354.976 272.31 354.711 271.668C354.446 271.027 354.057 270.444 353.566 269.953C353.075 269.462 352.492 269.073 351.851 268.808C351.209 268.543 350.521 268.408 349.827 268.409H219.177C218.481 268.408 217.792 268.543 217.149 268.808C216.506 269.072 215.922 269.461 215.429 269.952C214.936 270.442 214.545 271.025 214.277 271.667C214.01 272.308 213.871 272.997 213.87 273.692Z" fill="#F9BE00"/>
<path opacity="0.2" d="M308.45 273.692H355.109C355.111 272.998 354.975 272.31 354.711 271.668C354.446 271.027 354.057 270.444 353.566 269.953C353.075 269.462 352.492 269.073 351.85 268.808C351.209 268.543 350.521 268.408 349.827 268.409H313.757C313.062 268.408 312.373 268.543 311.73 268.808C311.087 269.072 310.502 269.461 310.01 269.952C309.517 270.442 309.125 271.025 308.858 271.667C308.59 272.308 308.452 272.997 308.45 273.692Z" fill="black"/>
<path opacity="0.4" d="M247.244 237.549C248.237 244.425 252.992 249.438 257.87 248.739C262.748 248.04 265.898 241.888 264.917 235.012C263.937 228.136 259.169 223.124 254.291 223.822C249.413 224.521 246.251 230.661 247.244 237.549Z" fill="white"/>
<path opacity="0.2" d="M213.87 273.692H355.11C355.111 272.998 354.976 272.31 354.711 271.668C354.446 271.027 354.057 270.444 353.566 269.953C353.075 269.462 352.492 269.073 351.851 268.808C351.209 268.543 350.521 268.408 349.827 268.409H219.177C218.481 268.408 217.792 268.543 217.149 268.808C216.506 269.072 215.922 269.461 215.429 269.952C214.936 270.442 214.545 271.025 214.277 271.667C214.01 272.308 213.871 272.997 213.87 273.692Z" fill="black"/>
<path d="M156.021 280.531H399.918C399.918 278.217 398.999 275.997 397.362 274.361C395.726 272.724 393.506 271.805 391.192 271.805H164.759C162.444 271.805 160.223 272.724 158.584 274.36C156.946 275.996 156.024 278.216 156.021 280.531Z" fill="#263238"/>
</svg>
