<svg width="64" height="64" viewBox="0 0 64 64" fill="none" xmlns="http://www.w3.org/2000/svg">
<rect width="63.9961" height="63.9961" rx="31.998" fill="#E2FBDF"/>
<path d="M45.3284 38.5568V42.5566C45.3299 42.9279 45.2538 43.2954 45.1051 43.6356C44.9563 43.9758 44.7381 44.2812 44.4645 44.5323C44.1909 44.7833 43.8679 44.9744 43.5161 45.0933C43.1644 45.2123 42.7917 45.2565 42.4219 45.2231C38.3192 44.7773 34.3784 43.3754 30.9159 41.13C27.6946 39.083 24.9634 36.3518 22.9164 33.1305C20.6632 29.6523 19.261 25.6922 18.8233 21.5712C18.79 21.2025 18.8338 20.8309 18.952 20.4801C19.0701 20.1292 19.2601 19.8069 19.5096 19.5335C19.7592 19.26 20.063 19.0416 20.4016 18.892C20.7402 18.7425 21.1063 18.665 21.4765 18.6647H25.4762C26.1233 18.6583 26.7506 18.8874 27.2412 19.3094C27.7318 19.7313 28.0522 20.3172 28.1428 20.9579C28.3116 22.2379 28.6247 23.4947 29.076 24.7043C29.2554 25.1815 29.2942 25.7001 29.1879 26.1987C29.0816 26.6973 28.8345 27.155 28.4761 27.5175L26.7828 29.2107C28.6808 32.5486 31.4445 35.3123 34.7823 37.2102L36.4756 35.517C36.8381 35.1585 37.2957 34.9115 37.7943 34.8052C38.2929 34.6988 38.8115 34.7376 39.2887 34.917C40.4984 35.3684 41.7552 35.6815 43.0352 35.8503C43.6828 35.9417 44.2743 36.2679 44.6971 36.7669C45.1199 37.2659 45.3446 37.9029 45.3284 38.5568Z" stroke="#387C2D" stroke-width="2.6665" stroke-linecap="round" stroke-linejoin="round"/>
</svg>
